<svg xmlns="http://www.w3.org/2000/svg" xmlns:xlink="http://www.w3.org/1999/xlink" width="500" zoomAndPan="magnify" viewBox="0 0 375 374.999991" height="500" preserveAspectRatio="xMidYMid meet" version="1.0"><defs><clipPath id="2305a931e4"><path d="M 75.039062 149 L 300 149 L 300 226 L 75.039062 226 Z M 75.039062 149 " clip-rule="nonzero"/></clipPath><clipPath id="90180a9957"><path d="M 37.5 37.5 L 165.75 37.5 L 165.75 66 L 37.5 66 Z M 37.5 37.5 " clip-rule="nonzero"/></clipPath><clipPath id="966b28f372"><path d="M 187.5 293 L 337.5 293 L 337.5 337.6875 L 187.5 337.6875 Z M 187.5 293 " clip-rule="nonzero"/></clipPath><clipPath id="57ca2f0f7d"><path d="M 294 37.5 L 337 37.5 L 337 87 L 294 87 Z M 294 37.5 " clip-rule="nonzero"/></clipPath></defs><rect x="-37.5" width="450" fill="#ffffff" y="-37.499999" height="449.999989" fill-opacity="1"/><rect x="-37.5" width="450" fill="#ffffff" y="-37.499999" height="449.999989" fill-opacity="1"/><g clip-path="url(#2305a931e4)"><path fill="#a8dadc" d="M 170.433594 149.441406 C 168.59375 150.058594 167.183594 153.046875 167.730469 155.164062 C 168.015625 156.261719 168.449219 156.59375 170.789062 157.523438 C 173.507812 158.601562 175.96875 159.824219 177.019531 160.617188 C 180.96875 163.605469 182.890625 167.785156 184.582031 177.070312 C 185.410156 181.621094 185.558594 183.074219 185.875 189.679688 C 186.105469 194.558594 186.160156 195.214844 186.570312 198.625 C 186.988281 202.066406 187.054688 204.765625 186.746094 205.652344 C 186.511719 206.332031 186.328125 205.449219 185.984375 201.960938 C 185.882812 200.914062 185.71875 199.296875 185.621094 198.367188 C 185.433594 196.609375 185.382812 195.816406 185.140625 190.742188 C 184.65625 180.730469 183.378906 176.121094 178.210938 165.777344 C 176.035156 161.414062 175.273438 160.542969 172.3125 159.011719 C 170.894531 158.277344 170.683594 158.199219 163.183594 155.589844 C 161.8125 155.113281 159.535156 154.3125 158.125 153.808594 C 149.066406 150.578125 148.667969 150.621094 150.957031 154.601562 C 152.578125 157.417969 153.90625 160.171875 155.960938 164.972656 C 157.71875 169.074219 158.425781 171.183594 159.84375 176.585938 C 161.984375 184.722656 161.890625 184.617188 169.378906 187.273438 C 176.230469 189.707031 180.34375 192.265625 182.320312 195.320312 C 184.160156 198.167969 185.25 204.386719 184.171875 205.90625 L 184.027344 206.113281 L 183.375 205.148438 C 180.777344 201.292969 175.859375 197.546875 171.734375 196.28125 C 167.945312 195.121094 164.257812 196.007812 160.78125 198.914062 C 159.761719 199.769531 159.082031 200.539062 156.257812 204.042969 C 154.324219 206.433594 153.660156 206.476562 153.902344 204.199219 C 154.671875 196.957031 160.6875 192.183594 168.40625 192.691406 C 173.457031 193.027344 176.402344 194.835938 179.730469 199.652344 C 180.609375 200.917969 180.902344 201.265625 181.253906 201.449219 C 182.480469 202.082031 182.503906 200.007812 181.292969 197.59375 C 178.089844 191.203125 169.167969 188.457031 159.882812 191.007812 C 157.554688 191.644531 155.621094 192.390625 152.515625 193.839844 C 147.464844 196.203125 147.394531 196.207031 142.785156 194.035156 C 139.816406 192.636719 138.613281 192.152344 134.828125 190.8125 C 133.46875 190.332031 132.351562 189.90625 132.351562 189.871094 C 132.351562 189.574219 133.792969 188.070312 134.824219 187.292969 C 138.289062 184.671875 142.539062 183.5625 148.121094 183.8125 C 152.03125 183.988281 153.285156 184.15625 157.5 185.078125 C 160.59375 185.753906 161.417969 185.753906 161.417969 185.070312 C 161.417969 184.53125 160.511719 183.792969 158.671875 182.835938 C 152.175781 179.449219 142.613281 179.703125 132.351562 183.535156 C 128.929688 184.8125 127.25 186 127.164062 187.195312 C 127.078125 188.371094 127.671875 188.882812 130.21875 189.832031 C 130.933594 190.101562 131.359375 190.296875 131.351562 190.355469 C 131.34375 190.40625 131.269531 190.710938 131.1875 191.03125 C 130.972656 191.84375 130.980469 192.925781 131.207031 194.101562 C 131.476562 195.457031 131.488281 195.582031 131.40625 195.890625 C 131.191406 196.691406 130.816406 196.804688 128.136719 196.875 C 124.664062 196.96875 123.234375 197.355469 122.265625 198.472656 L 122.113281 198.652344 L 122.03125 198.417969 C 121.933594 198.140625 121.546875 198.074219 121.46875 198.320312 C 121.402344 198.527344 122.996094 202.570312 125.023438 207.351562 C 125.597656 208.703125 126.222656 210.1875 126.414062 210.648438 C 128.53125 215.742188 130.394531 219.292969 131.703125 220.726562 C 133.15625 222.320312 134.425781 222.449219 138.511719 221.429688 C 139.621094 221.152344 141.648438 220.691406 143.019531 220.402344 C 147.023438 219.5625 148.792969 219.125 151.742188 218.234375 C 154.121094 217.519531 165.503906 213.738281 168.570312 212.644531 C 173.539062 210.875 174.761719 210.527344 179.238281 209.589844 C 180.617188 209.300781 181.128906 209.265625 181.621094 209.421875 C 181.804688 209.480469 182.015625 209.53125 182.097656 209.535156 C 182.582031 209.550781 183.441406 209.835938 184.054688 210.179688 C 185 210.714844 185.546875 211.242188 186.753906 212.777344 C 188.328125 214.78125 190.257812 215.824219 192.136719 215.683594 C 193.082031 215.617188 194.554688 215.179688 197.203125 214.1875 C 198.597656 213.667969 200.875 212.855469 202.222656 212.40625 C 204.507812 211.640625 210.414062 210.300781 212.230469 210.136719 C 214.140625 209.964844 216.207031 209.65625 219.398438 209.070312 C 222.957031 208.417969 224.46875 208.261719 227.8125 208.195312 C 228.757812 208.175781 230.171875 208.125 230.949219 208.082031 C 231.984375 208.023438 232.550781 208.023438 233.039062 208.082031 C 234.148438 208.21875 234.75 208.382812 234.441406 208.472656 C 233.773438 208.664062 232.824219 208.835938 231.585938 208.992188 C 230.222656 209.164062 229.082031 209.292969 221.101562 210.175781 C 218.144531 210.5 214.558594 210.945312 213.699219 211.09375 C 208.511719 211.984375 203.746094 213.351562 198.265625 215.523438 C 195.832031 216.484375 194.820312 217.027344 194.925781 217.300781 C 194.976562 217.4375 192.996094 217.425781 192.128906 217.285156 C 189.828125 216.910156 188.351562 215.835938 186.132812 212.921875 C 183.761719 209.808594 181.847656 209.902344 173.59375 213.546875 C 169.023438 215.5625 164.804688 217 158.503906 218.683594 C 157.207031 219.03125 154.644531 219.726562 152.808594 220.230469 C 150.972656 220.734375 148.449219 221.421875 147.199219 221.757812 C 145.949219 222.097656 144.035156 222.640625 142.945312 222.96875 C 133.082031 225.933594 131.378906 225.472656 129.34375 219.300781 C 126.710938 211.320312 124.507812 207.472656 122.132812 206.695312 C 119.554688 205.851562 118.453125 207.558594 118.753906 211.921875 C 119.019531 215.8125 118.617188 217.765625 117.246094 219.164062 C 114.855469 221.605469 111.410156 219.410156 104.820312 211.242188 C 101.878906 207.59375 99.566406 205.65625 97.6875 205.257812 C 96.273438 204.957031 95.597656 205.101562 91.9375 206.5 C 87.636719 208.144531 83.566406 208.464844 78.867188 207.53125 C 77.417969 207.242188 76.144531 206.75 75.835938 206.359375 C 75.515625 205.953125 75.042969 206.121094 75.253906 206.566406 C 75.953125 208.03125 82.84375 209.09375 87.191406 208.40625 C 89.183594 208.089844 90.847656 207.609375 93.421875 206.597656 C 95.070312 205.949219 95.550781 205.808594 96.292969 205.757812 C 98.613281 205.605469 100.445312 207.015625 104.890625 212.367188 C 110.765625 219.445312 113.492188 221.390625 116.285156 220.511719 C 118.75 219.730469 119.683594 217.050781 119.328125 211.785156 C 119.054688 207.769531 120.179688 206.226562 122.445312 207.507812 C 124.25 208.535156 126.6875 213.074219 128.585938 218.957031 C 129.613281 222.144531 130.089844 223.132812 131.066406 224.101562 C 132.699219 225.722656 135.839844 225.691406 141.554688 224.003906 C 141.957031 223.886719 143.03125 223.570312 143.9375 223.300781 C 144.84375 223.03125 146.691406 222.515625 148.042969 222.148438 C 149.394531 221.785156 151.496094 221.210938 152.714844 220.871094 C 153.933594 220.535156 155.171875 220.191406 155.464844 220.117188 C 160.15625 218.871094 161.410156 218.527344 163 218.042969 C 167.886719 216.558594 170.511719 215.605469 174.070312 214.023438 C 181.90625 210.542969 183.460938 210.464844 185.691406 213.4375 C 187.878906 216.355469 189.449219 217.445312 192.09375 217.878906 C 194.1875 218.222656 199.550781 217.613281 205.046875 216.402344 C 215.402344 214.125 216.820312 213.859375 225.476562 212.554688 C 240.578125 210.285156 240.789062 210.179688 242.398438 203.953125 C 243.777344 198.625 246.980469 196.574219 249.8125 199.199219 C 250.503906 199.835938 250.917969 200.453125 251.859375 202.253906 C 254.316406 206.9375 256.3125 209.769531 258.132812 211.148438 C 261.359375 213.59375 266.023438 212.765625 269.6875 209.09375 C 271.914062 206.863281 273.398438 204.226562 275.910156 198.03125 C 278.597656 191.394531 279.964844 189.027344 281.859375 187.722656 C 285.75 185.042969 289.613281 186.992188 295.484375 194.59375 C 298.042969 197.910156 298.914062 198.769531 299.632812 198.6875 C 299.949219 198.648438 299.992188 198.214844 299.683594 198.140625 C 299.507812 198.101562 299.238281 197.933594 298.871094 197.636719 C 298.675781 197.480469 296.941406 195.382812 295.957031 194.117188 C 290.421875 186.972656 286.769531 184.890625 282.664062 186.53125 C 280.035156 187.585938 278.46875 189.980469 275.378906 197.671875 C 271.804688 206.570312 268.832031 210.363281 264.4375 211.636719 C 259.910156 212.949219 257.09375 210.6875 252.476562 202.035156 C 251.390625 199.996094 251.082031 199.527344 250.398438 198.84375 C 248.285156 196.746094 245.285156 197.167969 243.390625 199.835938 C 242.707031 200.796875 242.390625 201.605469 241.777344 203.976562 C 240.316406 209.601562 239.9375 209.789062 225.390625 211.96875 C 217.320312 213.183594 216.589844 213.308594 211.9375 214.316406 C 204.554688 215.914062 202.988281 216.234375 200.5 216.664062 C 199.035156 216.914062 196.085938 217.328125 195.824219 217.316406 C 194.953125 217.28125 202.984375 214.320312 207.027344 213.1875 C 211.511719 211.929688 213.574219 211.597656 224.183594 210.429688 C 230.574219 209.722656 233.558594 209.359375 233.746094 209.261719 C 233.808594 209.226562 234.007812 209.175781 234.191406 209.148438 C 236.105469 208.832031 235.449219 207.496094 233.375 207.496094 L 232.996094 207.496094 L 233.28125 207.304688 C 234.027344 206.796875 234.234375 205.902344 233.898438 204.632812 C 233.660156 203.730469 231.511719 197.304688 231.273438 196.777344 C 230.582031 195.253906 228.960938 194.007812 227.667969 194.007812 C 227.613281 194.007812 227.402344 193.863281 227.195312 193.691406 C 225.765625 192.484375 220.191406 188.6875 218.609375 187.839844 C 214.523438 185.660156 211.460938 186.933594 202.371094 194.585938 C 201.023438 195.71875 200.453125 196.214844 198.300781 198.113281 C 193.089844 202.707031 190.730469 204.667969 189.21875 205.65625 C 188.527344 206.105469 188.46875 206.113281 188.652344 205.75 C 189.59375 203.90625 193.03125 200.433594 199.914062 194.371094 C 202.464844 192.125 204.867188 189.964844 205.707031 189.167969 C 206.285156 188.621094 206.933594 188.007812 208.160156 186.855469 C 208.855469 186.203125 210.0625 185.050781 211.277344 183.878906 C 215.589844 179.714844 217.652344 178.402344 222.460938 176.738281 C 225.207031 175.785156 225.539062 175.261719 224.25 173.90625 C 224.046875 173.691406 223.441406 173.035156 222.902344 172.453125 C 219.898438 169.183594 218.742188 169.328125 215.054688 173.417969 C 214.265625 174.289062 213.523438 175.113281 213.402344 175.25 C 213.28125 175.382812 212.691406 176.054688 212.089844 176.742188 C 211.492188 177.425781 210.546875 178.5 210 179.125 C 208.457031 180.871094 206.195312 183.535156 203.988281 186.191406 C 198.167969 193.203125 192.601562 199.105469 189.847656 201.175781 C 189.1875 201.675781 189.15625 201.648438 189.53125 200.871094 C 190.3125 199.257812 191.464844 197.621094 194.0625 194.445312 C 197.085938 190.746094 200.101562 186.582031 202.054688 183.414062 C 202.375 182.886719 203.085938 181.734375 203.632812 180.847656 C 204.179688 179.960938 204.949219 178.6875 205.339844 178.023438 C 208.125 173.304688 209.132812 172.160156 213.183594 169.097656 C 216.871094 166.316406 216.738281 165.6875 212.085938 163.851562 C 208.117188 162.289062 207.175781 162.332031 205.742188 164.132812 C 204.320312 165.917969 201.976562 170.933594 199.988281 176.457031 C 198.855469 179.597656 198.480469 180.59375 197.597656 182.800781 C 195.59375 187.808594 193.660156 191.589844 191.355469 195.015625 C 190.996094 195.546875 190.691406 195.988281 190.679688 195.988281 C 190.664062 195.988281 190.894531 195.378906 191.191406 194.640625 C 191.644531 193.5 192.1875 191.988281 193.167969 189.132812 C 194.953125 183.933594 197.019531 175.765625 197.746094 171.019531 C 198.769531 164.328125 198.820312 159.929688 197.890625 158.058594 C 197.148438 156.558594 196.328125 156.183594 191.628906 155.183594 C 184.632812 153.695312 182.082031 152.945312 176.324219 150.683594 C 172.75 149.277344 171.621094 149.039062 170.433594 149.441406 M 172.566406 150.011719 C 173.34375 150.203125 174.128906 150.476562 175.71875 151.113281 C 181.257812 153.335938 184.632812 154.316406 192.398438 155.957031 C 195.925781 156.703125 196.824219 157.183594 197.492188 158.6875 C 198.207031 160.3125 198.117188 164.441406 197.234375 170.433594 C 196.214844 177.335938 193.558594 186.882812 190.453125 194.8125 C 189.8125 196.453125 189.664062 196.90625 189.65625 197.234375 L 189.648438 197.636719 L 189.894531 197.660156 C 190.210938 197.691406 190.296875 197.609375 191.074219 196.574219 C 194.214844 192.375 197.058594 186.4375 200.433594 177.035156 C 202.75 170.574219 205.273438 165.378906 206.761719 164 C 207.816406 163.023438 208.410156 163.066406 211.671875 164.359375 C 214.046875 165.300781 215.128906 165.914062 215.128906 166.328125 C 215.128906 166.683594 214.515625 167.265625 212.746094 168.59375 C 208.691406 171.636719 207.671875 172.808594 204.644531 177.914062 C 204.0625 178.890625 202.03125 182.210938 201.050781 183.777344 C 199.234375 186.691406 196.65625 190.179688 192.875 194.847656 C 189.082031 199.535156 187.585938 202.609375 189.273438 202.25 C 190.378906 202.015625 194.816406 197.734375 199.984375 191.917969 C 201.152344 190.605469 204.042969 187.203125 204.96875 186.050781 C 205.542969 185.34375 208.78125 181.53125 209.734375 180.449219 C 210.214844 179.902344 211.023438 178.976562 211.53125 178.394531 C 219.238281 169.527344 219.304688 169.496094 222.507812 173 C 223.058594 173.605469 223.671875 174.265625 223.867188 174.46875 C 224.621094 175.246094 224.453125 175.402344 221.871094 176.300781 C 218.597656 177.441406 216.84375 178.328125 214.859375 179.839844 C 213.460938 180.90625 212.925781 181.386719 209.957031 184.21875 C 209.070312 185.0625 208.066406 186.023438 207.722656 186.34375 C 206.332031 187.660156 205.894531 188.070312 205.265625 188.660156 C 204.902344 188.996094 204.589844 189.292969 204.570312 189.3125 C 204.550781 189.335938 204.203125 189.648438 203.800781 190.011719 C 203.398438 190.375 203.050781 190.6875 203.03125 190.710938 C 202.949219 190.792969 200.789062 192.710938 199.730469 193.640625 C 191.21875 201.097656 187.585938 205.011719 187.890625 206.398438 C 188.144531 207.554688 190.726562 205.726562 198.117188 199.167969 C 198.257812 199.042969 198.6875 198.664062 199.070312 198.324219 C 209.324219 189.226562 213.605469 186.640625 216.703125 187.691406 C 218.136719 188.175781 221.683594 190.417969 225.75 193.398438 L 226.339844 193.835938 L 225.226562 193.917969 C 216.527344 194.570312 203.515625 199.621094 190.375 207.441406 C 187.367188 209.230469 187.148438 209.886719 188.960938 211.636719 C 190.75 213.367188 191.699219 213.519531 194.742188 212.566406 C 195.535156 212.320312 195.6875 212.292969 195.914062 212.359375 C 197.074219 212.707031 199.558594 212.328125 204.210938 211.097656 C 205.285156 210.816406 206.339844 210.5625 206.558594 210.539062 C 206.773438 210.515625 206.0625 210.726562 204.972656 211.003906 C 202.828125 211.550781 200.753906 212.222656 197.648438 213.375 C 192.300781 215.355469 191.609375 215.464844 189.925781 214.617188 C 188.820312 214.0625 188.070312 213.398438 187.023438 212.042969 C 186.035156 210.761719 185.144531 209.976562 184.152344 209.503906 C 183.910156 209.386719 183.691406 209.269531 183.671875 209.242188 C 183.648438 209.210938 183.335938 209.128906 182.976562 209.058594 C 182.476562 208.957031 182.304688 208.890625 182.246094 208.78125 C 182.183594 208.65625 181.738281 208.003906 181.414062 207.566406 C 181.332031 207.453125 181.339844 207.402344 181.484375 207.207031 C 182.117188 206.351562 181.570312 205.238281 179.5 203.167969 C 175.644531 199.3125 171.847656 197.792969 168.699219 198.847656 C 167.527344 199.238281 167.042969 199.527344 163.183594 202.109375 C 153.546875 208.550781 152.324219 208.648438 146.28125 203.460938 C 142.433594 200.152344 141.164062 199.089844 139.355469 197.664062 C 136.597656 195.488281 134.984375 194.738281 134.808594 195.546875 C 134.46875 197.089844 138.699219 201.1875 145.035156 205.460938 C 153.050781 210.859375 155.511719 210.832031 162.15625 205.257812 C 168.796875 199.691406 171.40625 199.296875 175.914062 203.179688 C 178.660156 205.546875 180.300781 207.164062 180.25 207.464844 C 180.210938 207.707031 180.394531 207.855469 180.640625 207.777344 C 180.714844 207.753906 181.035156 208.097656 181.320312 208.503906 L 181.484375 208.742188 L 180.875 208.742188 C 180.308594 208.742188 178.839844 208.972656 178.503906 209.109375 C 178.425781 209.144531 177.648438 209.328125 176.78125 209.515625 C 174.148438 210.089844 172.5625 210.574219 167.996094 212.203125 C 165.285156 213.167969 154.609375 216.726562 152 217.53125 C 148.742188 218.539062 147.097656 218.945312 141.847656 220.035156 C 141.242188 220.164062 139.675781 220.535156 138.363281 220.863281 L 135.980469 221.460938 L 134.953125 221.460938 C 132.382812 221.464844 130.777344 219.304688 127.347656 211.234375 C 123.113281 201.257812 122.414062 199.527344 122.605469 199.464844 C 122.714844 199.433594 122.746094 199.355469 122.746094 199.144531 C 122.746094 198.890625 122.785156 198.84375 123.207031 198.53125 C 124.289062 197.730469 125.203125 197.535156 128.246094 197.457031 C 131.949219 197.355469 132.402344 196.953125 131.847656 194.226562 C 131.519531 192.617188 131.507812 191.992188 131.800781 191.035156 C 131.996094 190.398438 131.804688 190.382812 134.269531 191.257812 C 138.246094 192.667969 139.476562 193.171875 142.726562 194.703125 C 147.199219 196.8125 147.726562 196.789062 153.101562 194.265625 C 162.496094 189.851562 170.027344 189.4375 176.007812 193.007812 C 179.027344 194.808594 181.757812 198.523438 181.609375 200.621094 L 181.585938 200.933594 L 181.277344 200.617188 C 181.109375 200.441406 180.648438 199.832031 180.257812 199.261719 C 178.441406 196.613281 177.152344 195.261719 175.371094 194.128906 C 170.808594 191.226562 163.042969 191.46875 158.5625 194.652344 C 155.53125 196.804688 153.480469 200.644531 153.34375 204.417969 C 153.285156 206.105469 153.449219 206.496094 154.222656 206.503906 C 154.953125 206.507812 155.460938 206.082031 157.011719 204.160156 C 160.523438 199.808594 161.726562 198.667969 164 197.535156 C 168 195.539062 171.476562 196.050781 176.464844 199.371094 C 179.199219 201.191406 182.941406 204.917969 182.941406 205.820312 C 182.941406 206.09375 183.253906 206.492188 183.535156 206.582031 C 183.609375 206.605469 183.675781 206.65625 183.675781 206.691406 C 183.675781 206.804688 183.964844 206.921875 184.117188 206.871094 C 184.195312 206.847656 184.261719 206.785156 184.261719 206.730469 C 184.261719 206.675781 184.34375 206.582031 184.441406 206.515625 C 185.8125 205.617188 185.128906 199.332031 183.265625 195.6875 C 181.984375 193.183594 179.769531 191.285156 175.828125 189.324219 C 173.378906 188.105469 172.9375 187.921875 168.316406 186.234375 C 162.648438 184.160156 162.332031 183.785156 160.617188 177.179688 C 158.78125 170.117188 158.148438 168.300781 155.113281 161.453125 C 154.105469 159.175781 152.597656 156.167969 151.402344 154.046875 C 150.292969 152.085938 150.25 151.964844 150.652344 152.035156 C 151.550781 152.199219 154.410156 153.128906 158.308594 154.523438 C 159.738281 155.035156 161.519531 155.664062 162.265625 155.917969 C 174.558594 160.113281 174.769531 160.257812 177.917969 166.621094 C 182.996094 176.898438 184.085938 180.949219 184.589844 191.402344 C 184.800781 195.828125 184.875 197 185.070312 198.808594 C 185.148438 199.535156 185.296875 200.96875 185.398438 201.996094 C 185.804688 206.117188 185.941406 206.617188 186.664062 206.617188 C 187.59375 206.617188 187.769531 203.441406 187.117188 198.257812 C 186.75 195.300781 186.671875 194.28125 186.386719 188.324219 C 186.078125 181.910156 185.59375 178.289062 184.332031 172.964844 C 183.097656 167.757812 182.160156 165.40625 180.363281 163.007812 C 178.441406 160.441406 176.425781 159.121094 171.246094 157.042969 C 169.632812 156.394531 169.167969 156.15625 168.804688 155.796875 C 167.707031 154.726562 168.117188 152.355469 169.675781 150.742188 C 170.515625 149.871094 171.238281 149.691406 172.566406 150.011719 M 149.910156 181.105469 C 154.269531 181.46875 158.808594 183.050781 160.503906 184.800781 L 160.757812 185.0625 L 160.394531 185.019531 C 159.820312 184.949219 159.074219 184.804688 157.023438 184.363281 C 150.433594 182.941406 144.375 182.796875 140.242188 183.964844 C 136.679688 184.964844 133.414062 187.058594 131.9375 189.28125 C 131.792969 189.5 131.652344 189.679688 131.632812 189.679688 C 131.523438 189.679688 129.683594 188.96875 129.164062 188.726562 C 126.921875 187.683594 127.3125 186.574219 130.457031 185.039062 C 135.949219 182.359375 144.421875 180.644531 149.910156 181.105469 M 227.230469 194.628906 C 227.328125 194.703125 227.582031 194.964844 227.792969 195.210938 C 229.152344 196.78125 228.671875 197.070312 220.296875 199.6875 C 215.316406 201.242188 215.304688 201.246094 209.1875 202.730469 C 201.410156 204.617188 197.621094 205.8125 197.371094 206.464844 C 197.171875 206.992188 197.40625 207.09375 198.660156 207.035156 C 200.300781 206.953125 202.402344 206.605469 208.296875 205.441406 C 210.328125 205.039062 213.363281 204.460938 215.042969 204.15625 C 220.496094 203.171875 223.226562 202.570312 226.675781 201.59375 C 229.40625 200.816406 230.289062 200.761719 230.597656 201.339844 C 230.8125 201.742188 229.691406 202.964844 228.574219 203.550781 C 226.984375 204.378906 225.425781 204.617188 219.785156 204.894531 C 209.011719 205.421875 200.097656 207.328125 196.203125 209.929688 C 195.203125 210.597656 194.929688 210.964844 194.976562 211.574219 L 195 211.859375 L 194.453125 212.027344 C 191.632812 212.898438 190.980469 212.757812 189.191406 210.917969 C 187.882812 209.574219 187.835938 209.625 193.644531 206.289062 C 200.800781 202.183594 207.652344 199.085938 214.503906 196.855469 C 219.703125 195.164062 226.398438 193.992188 227.230469 194.628906 M 228.902344 195.046875 C 230.277344 195.824219 230.609375 196.460938 232.269531 201.527344 C 233.691406 205.859375 233.710938 206.003906 233.074219 206.613281 C 232.433594 207.230469 232.125 207.292969 229.46875 207.359375 C 228.179688 207.390625 227.078125 207.4375 227.011719 207.460938 C 226.949219 207.488281 225.277344 207.539062 223.304688 207.574219 C 219.40625 207.648438 218.160156 207.710938 216.300781 207.941406 C 213.796875 208.246094 209.5 209.089844 206.804688 209.804688 C 206.441406 209.898438 205.804688 210 205.375 210.023438 C 201.632812 210.25 199.371094 210.601562 196.5625 211.398438 C 194.292969 212.039062 196.167969 210.398438 199.175781 209.109375 C 203.480469 207.261719 211.210938 205.898438 219.746094 205.480469 C 224.125 205.265625 225.757812 205.097656 227.28125 204.707031 C 229.539062 204.125 231.175781 202.769531 231.183594 201.484375 C 231.1875 200.128906 230.078125 200.035156 226.308594 201.070312 C 222.167969 202.203125 219.941406 202.683594 213.515625 203.832031 C 212.808594 203.957031 210.5 204.402344 208.382812 204.820312 C 203.117188 205.863281 200.609375 206.296875 199.035156 206.433594 C 197.105469 206.597656 202.902344 204.847656 209.59375 203.242188 C 215.125 201.914062 215.59375 201.789062 220.554688 200.238281 C 226.539062 198.367188 227.90625 197.855469 228.53125 197.230469 C 229.070312 196.691406 229.105469 196.097656 228.652344 195.269531 C 228.359375 194.738281 228.359375 194.738281 228.902344 195.046875 M 135.894531 196.070312 C 136.6875 196.46875 138.425781 197.722656 139.949219 198.988281 C 140.3125 199.292969 141.054688 199.90625 141.59375 200.347656 C 142.710938 201.269531 143.746094 202.148438 145.261719 203.464844 C 150.628906 208.125 152.925781 208.714844 157.316406 206.546875 C 158.605469 205.910156 160.628906 204.644531 163.96875 202.378906 C 169.054688 198.925781 170.175781 198.5625 172.890625 199.476562 C 176.289062 200.625 181.8125 205.578125 180.996094 206.746094 C 180.882812 206.90625 180.875 206.902344 180.171875 206.1875 C 178.570312 204.570312 175.632812 201.996094 174.546875 201.265625 C 171.039062 198.898438 167.59375 199.8125 161.875 204.628906 C 155.585938 209.917969 153.507812 210.113281 147.070312 206.019531 C 141.800781 202.667969 137.324219 198.910156 135.757812 196.527344 C 135.3125 195.847656 135.328125 195.785156 135.894531 196.070312 M 216.558594 208.636719 C 215.792969 208.769531 214.816406 208.945312 214.394531 209.027344 C 211.546875 209.578125 209.175781 209.929688 209.664062 209.730469 C 210.050781 209.574219 214.53125 208.765625 216.300781 208.53125 C 217.957031 208.3125 218.09375 208.367188 216.558594 208.636719 M 202.261719 210.984375 C 200.511719 211.449219 198.765625 211.777344 197.640625 211.851562 L 197.054688 211.894531 L 197.714844 211.714844 C 198.621094 211.464844 200.328125 211.125 201.34375 210.984375 C 201.808594 210.921875 202.269531 210.859375 202.371094 210.84375 C 202.894531 210.765625 202.84375 210.828125 202.261719 210.984375 " fill-opacity="1" fill-rule="evenodd"/></g><g clip-path="url(#90180a9957)"><path fill="#c5d1c5" d="M 97.25 51.167969 C 96.714844 51.402344 96.296875 51.726562 95.996094 52.167969 C 95.597656 52.75 95.15625 53.355469 94.808594 53.980469 C 94.066406 55.28125 93.34375 56.585938 92.671875 57.910156 C 92.183594 58.886719 91.8125 59.90625 91.347656 60.882812 C 90.8125 62.046875 90.089844 63.070312 89.117188 63.929688 C 88.929688 64.089844 88.742188 64.253906 88.535156 64.394531 C 87.234375 65.207031 85.863281 65.71875 84.304688 65.878906 C 82.792969 66.066406 81.375 65.835938 79.9375 65.4375 C 79.472656 65.300781 78.960938 65.253906 78.519531 65.089844 C 78.03125 64.925781 77.542969 64.742188 77.148438 64.460938 C 76.542969 64.042969 75.890625 63.8125 75.171875 63.695312 C 74.171875 63.535156 73.265625 63.089844 72.382812 62.625 C 72.21875 62.558594 72.082031 62.464844 71.894531 62.347656 C 71.546875 62.582031 71.222656 62.835938 70.871094 63.070312 C 69.78125 63.8125 68.039062 64.183594 66.710938 64.019531 C 65.0625 63.8125 63.574219 63.160156 62.203125 62.253906 C 62.019531 62.140625 61.832031 62.023438 61.714844 61.859375 C 61.390625 61.464844 60.996094 61.300781 60.507812 61.253906 C 59.695312 61.140625 58.902344 60.882812 58.160156 60.535156 C 57.417969 60.210938 56.671875 59.90625 55.929688 59.582031 C 55.164062 59.234375 54.488281 58.769531 53.929688 58.140625 C 53.882812 58.070312 53.8125 58.027344 53.746094 57.957031 C 52.90625 57.398438 52.28125 56.609375 51.558594 55.910156 C 51.257812 55.609375 50.957031 55.328125 50.605469 55.097656 C 49.210938 54.191406 47.820312 53.355469 46.285156 52.703125 C 45.914062 52.539062 45.519531 52.425781 45.144531 52.308594 C 44.75 52.167969 44.449219 52.261719 44.148438 52.5625 C 43.449219 53.308594 42.960938 54.167969 42.496094 55.050781 C 42.078125 55.863281 41.707031 56.699219 41.660156 57.628906 C 41.589844 58.863281 41.636719 60.09375 42.21875 61.234375 C 42.378906 61.582031 42.472656 61.953125 42.613281 62.371094 C 42.449219 62.371094 42.289062 62.371094 42.148438 62.371094 C 41.542969 62.347656 40.917969 62.300781 40.3125 62.324219 C 39.707031 62.347656 39.058594 62.160156 38.730469 61.417969 C 38.289062 60.417969 37.800781 59.464844 37.640625 58.351562 C 37.5 57.351562 37.59375 56.398438 38.035156 55.46875 C 38.546875 54.355469 39.125 53.308594 40.171875 52.609375 C 41.449219 51.773438 42.796875 51.402344 44.308594 51.589844 C 44.613281 51.632812 44.867188 51.589844 45.144531 51.425781 C 46.167969 50.820312 47.261719 50.542969 48.445312 50.449219 C 50.628906 50.285156 52.351562 51.214844 53.929688 52.539062 C 55.09375 53.515625 56.070312 54.679688 57.066406 55.792969 C 57.789062 56.632812 58.578125 57.398438 59.320312 58.234375 C 59.996094 59 60.601562 59.816406 61.226562 60.605469 C 61.390625 60.835938 61.601562 60.929688 61.878906 60.953125 C 63.085938 61.023438 64.273438 60.882812 65.410156 60.582031 C 66.246094 60.347656 67.039062 60.023438 67.828125 59.722656 C 67.992188 59.652344 68.128906 59.535156 68.269531 59.441406 C 68.5 59.28125 68.710938 59.117188 68.964844 58.933594 C 68.828125 58.722656 68.6875 58.488281 68.546875 58.257812 C 68.058594 57.375 67.875 56.375 67.6875 55.398438 C 67.410156 53.980469 67.269531 52.5625 67.316406 51.125 C 67.386719 49.265625 67.617188 47.453125 68.339844 45.730469 C 68.898438 44.359375 69.710938 43.222656 71.011719 42.453125 C 71.523438 42.152344 71.988281 41.78125 72.5 41.457031 C 73.777344 40.640625 75.171875 40.246094 76.683594 40.222656 C 76.9375 40.222656 77.101562 40.152344 77.285156 39.96875 C 77.75 39.457031 78.332031 39.109375 78.984375 38.828125 C 79.261719 38.714844 79.515625 38.574219 79.773438 38.433594 C 81.050781 37.828125 82.421875 37.597656 83.816406 37.667969 C 85.976562 37.738281 88 38.363281 89.929688 39.269531 C 90.953125 39.757812 91.835938 40.457031 92.578125 41.316406 C 92.925781 41.6875 93.277344 42.058594 93.578125 42.453125 C 94.066406 43.105469 94.578125 43.78125 94.996094 44.476562 C 95.507812 45.3125 96.203125 45.964844 96.949219 46.660156 C 96.992188 46.523438 97.039062 46.453125 97.0625 46.382812 C 97.203125 45.476562 97.691406 44.777344 98.457031 44.3125 C 98.945312 44.011719 99.480469 43.78125 100.015625 43.570312 C 100.199219 43.5 100.363281 43.429688 100.410156 43.222656 C 100.503906 42.894531 100.757812 42.804688 101.0625 42.851562 C 101.664062 42.917969 102.222656 43.128906 102.640625 43.59375 C 102.941406 43.917969 103.246094 44.289062 103.523438 44.640625 C 103.640625 44.777344 103.757812 44.871094 103.941406 44.894531 C 105.011719 45.035156 105.777344 45.523438 105.964844 46.730469 C 106.105469 46.660156 106.195312 46.613281 106.265625 46.546875 C 106.964844 45.917969 107.636719 45.289062 108.101562 44.453125 C 108.660156 43.429688 109.425781 42.546875 110.195312 41.6875 C 110.542969 41.316406 110.890625 40.945312 111.261719 40.59375 C 112.054688 39.875 112.9375 39.339844 113.9375 38.945312 C 115.632812 38.292969 117.375 37.738281 119.234375 37.691406 C 120.816406 37.644531 122.347656 37.875 123.742188 38.691406 C 123.882812 38.757812 124.046875 38.804688 124.160156 38.875 C 124.648438 39.15625 125.160156 39.410156 125.578125 39.757812 C 125.925781 40.0625 126.253906 40.246094 126.71875 40.246094 C 128.460938 40.269531 129.972656 40.992188 131.390625 41.964844 C 131.738281 42.222656 132.085938 42.476562 132.457031 42.734375 C 133.527344 43.429688 134.175781 44.453125 134.6875 45.59375 C 135.339844 47.101562 135.617188 48.660156 135.734375 50.285156 C 135.875 52.332031 135.640625 54.351562 135.199219 56.351562 C 134.992188 57.304688 134.6875 58.210938 134.132812 58.933594 C 134.945312 59.746094 135.945312 60.117188 136.941406 60.417969 C 138.3125 60.835938 139.707031 61.070312 141.148438 61 C 141.476562 60.976562 141.707031 60.882812 141.894531 60.605469 C 142.472656 59.839844 143.054688 59.070312 143.683594 58.351562 C 144.519531 57.398438 145.402344 56.46875 146.285156 55.515625 C 147.027344 54.703125 147.773438 53.890625 148.539062 53.097656 C 149.308594 52.308594 150.191406 51.65625 151.210938 51.144531 C 153.488281 50.03125 155.699219 50.238281 157.859375 51.378906 C 158.183594 51.566406 158.488281 51.589844 158.859375 51.566406 C 160.902344 51.378906 162.667969 52.03125 163.972656 53.585938 C 164.738281 54.515625 165.296875 55.632812 165.457031 56.863281 C 165.621094 57.980469 165.34375 59.070312 164.925781 60.09375 C 164.714844 60.582031 164.480469 61.046875 164.25 61.511719 C 164.015625 62.023438 163.597656 62.277344 163.089844 62.253906 C 162.273438 62.230469 161.484375 62.183594 160.671875 62.324219 C 160.601562 62.324219 160.53125 62.300781 160.460938 62.277344 C 160.648438 61.789062 160.832031 61.324219 161.019531 60.835938 C 161.625 59.164062 161.671875 57.515625 160.996094 55.863281 C 160.554688 54.796875 159.972656 53.796875 159.253906 52.867188 C 159.160156 52.75 159.066406 52.65625 158.972656 52.539062 C 158.695312 52.191406 158.324219 52.074219 157.90625 52.238281 C 157.347656 52.449219 156.789062 52.632812 156.230469 52.890625 C 154.929688 53.46875 153.699219 54.191406 152.535156 55.003906 C 151.886719 55.445312 151.351562 56.050781 150.792969 56.585938 C 150.46875 56.886719 150.144531 57.210938 149.792969 57.515625 C 149.515625 57.769531 149.261719 58.027344 148.980469 58.257812 C 148.539062 58.605469 148.121094 59 147.632812 59.257812 C 145.867188 60.164062 144.078125 61 142.078125 61.277344 C 141.964844 61.300781 141.800781 61.371094 141.730469 61.464844 C 141.054688 62.183594 140.21875 62.648438 139.335938 63.070312 C 138.222656 63.578125 137.058594 63.976562 135.804688 64.019531 C 135.503906 64.019531 135.175781 64.019531 134.875 63.976562 C 133.667969 63.742188 132.503906 63.371094 131.527344 62.535156 C 131.433594 62.464844 131.320312 62.394531 131.203125 62.300781 C 131.085938 62.347656 130.949219 62.394531 130.832031 62.464844 C 129.667969 63.113281 128.460938 63.601562 127.136719 63.789062 C 126.925781 63.8125 126.742188 63.90625 126.554688 64.019531 C 126.207031 64.207031 125.882812 64.441406 125.507812 64.648438 C 125.089844 64.882812 124.671875 65.042969 124.183594 65.113281 C 123.601562 65.207031 123.046875 65.414062 122.464844 65.578125 C 121.488281 65.832031 120.511719 66.042969 119.511719 65.902344 C 118.699219 65.8125 117.863281 65.765625 117.074219 65.53125 C 114.84375 64.90625 113.144531 63.554688 112.054688 61.488281 C 111.726562 60.859375 111.449219 60.210938 111.171875 59.582031 C 110.730469 58.652344 110.332031 57.699219 109.84375 56.769531 C 109.289062 55.703125 108.707031 54.679688 108.101562 53.65625 C 107.777344 53.121094 107.40625 52.609375 107.035156 52.097656 C 106.730469 51.679688 106.3125 51.378906 105.800781 51.144531 C 105.640625 51.425781 105.5 51.703125 105.335938 51.960938 C 104.941406 52.679688 104.382812 53.214844 103.570312 53.425781 C 103.429688 53.445312 103.316406 53.539062 103.199219 53.609375 C 102.640625 53.890625 102.082031 54.003906 101.480469 53.84375 C 101.175781 53.75 100.875 53.65625 100.574219 53.585938 C 100.457031 53.5625 100.339844 53.539062 100.222656 53.539062 C 99.085938 53.585938 98.503906 53.167969 98.226562 52.054688 C 98.203125 51.960938 98.109375 51.84375 98.015625 51.773438 C 97.832031 51.542969 97.550781 51.355469 97.25 51.167969 Z M 106.128906 48.730469 C 106.335938 48.707031 106.476562 48.707031 106.613281 48.707031 C 107.636719 48.660156 108.683594 48.589844 109.707031 48.542969 C 110.75 48.496094 111.820312 48.425781 112.867188 48.496094 C 114.679688 48.636719 116.445312 48.984375 118.1875 49.449219 C 119.605469 49.820312 120.90625 50.496094 122.230469 51.078125 C 123.789062 51.75 125.277344 52.519531 126.671875 53.445312 C 126.925781 53.609375 127.183594 53.820312 127.414062 54.027344 C 128.203125 54.75 128.996094 55.46875 129.808594 56.167969 C 130.320312 56.609375 130.902344 56.980469 131.503906 57.304688 C 131.855469 56.515625 131.992188 55.726562 131.898438 54.863281 C 131.714844 53.050781 131.296875 51.308594 130.761719 49.589844 C 130.34375 48.3125 129.738281 47.101562 129.113281 45.894531 C 128.203125 44.175781 127.113281 42.546875 126.066406 40.921875 C 125.882812 40.640625 125.671875 40.550781 125.371094 40.59375 C 125.136719 40.617188 124.882812 40.640625 124.648438 40.664062 C 123.859375 40.710938 123.070312 40.757812 122.324219 41.039062 C 121.8125 41.222656 121.28125 41.363281 120.769531 41.5 C 119.164062 41.964844 117.632812 42.617188 116.214844 43.5 C 115.074219 44.199219 113.980469 44.941406 112.84375 45.660156 C 111.84375 46.289062 110.867188 46.917969 109.824219 47.472656 C 108.730469 48.054688 107.523438 48.289062 106.265625 48.3125 C 106.21875 48.3125 106.171875 48.335938 106.105469 48.335938 C 106.082031 48.449219 106.105469 48.566406 106.128906 48.730469 Z M 97.039062 48.402344 C 97.015625 48.382812 97.015625 48.359375 96.992188 48.359375 C 96.925781 48.335938 96.855469 48.335938 96.785156 48.335938 C 95.113281 48.265625 93.578125 47.730469 92.183594 46.847656 C 90.535156 45.800781 88.90625 44.730469 87.257812 43.6875 C 86.464844 43.199219 85.652344 42.757812 84.816406 42.363281 C 83.304688 41.640625 81.65625 41.292969 80.074219 40.78125 C 79.84375 40.710938 79.585938 40.710938 79.355469 40.6875 C 78.867188 40.640625 78.378906 40.617188 77.890625 40.574219 C 77.542969 40.550781 77.285156 40.617188 77.101562 40.945312 C 76.355469 42.128906 75.566406 43.292969 74.871094 44.5 C 73.917969 46.101562 73.035156 47.777344 72.453125 49.566406 C 71.917969 51.191406 71.523438 52.867188 71.335938 54.585938 C 71.222656 55.492188 71.265625 56.398438 71.710938 57.28125 C 71.847656 57.1875 72.011719 57.117188 72.152344 57.027344 C 73.082031 56.492188 73.917969 55.792969 74.660156 55.050781 C 75.753906 53.980469 76.9375 53.074219 78.285156 52.378906 C 79.402344 51.820312 80.515625 51.285156 81.65625 50.773438 C 82.585938 50.355469 83.515625 49.9375 84.492188 49.636719 C 86.117188 49.101562 87.789062 48.824219 89.488281 48.589844 C 90.71875 48.425781 91.972656 48.402344 93.207031 48.519531 C 94.34375 48.613281 95.484375 48.636719 96.621094 48.589844 C 96.761719 48.566406 96.96875 48.613281 97.039062 48.402344 Z M 106.21875 49.636719 C 106.21875 49.683594 106.21875 49.707031 106.21875 49.753906 C 106.3125 49.773438 106.40625 49.796875 106.5 49.820312 C 108.101562 50.054688 109.496094 50.773438 110.660156 51.890625 C 112.355469 53.515625 113.773438 55.375 114.933594 57.398438 C 115.726562 58.769531 116.65625 60 117.910156 60.953125 C 118.328125 61.277344 118.675781 61.71875 119.210938 61.929688 C 120.882812 62.605469 122.582031 63.113281 124.347656 63.464844 C 124.996094 63.601562 125.695312 63.535156 126.390625 63.578125 C 126.832031 63.253906 127.296875 62.90625 127.738281 62.582031 C 127.832031 62.511719 127.925781 62.417969 128.019531 62.347656 C 128.460938 61.953125 128.855469 61.535156 129.179688 61.046875 C 127.507812 59.257812 125.625 57.769531 123.742188 56.28125 C 120.558594 53.796875 117.027344 51.960938 113.144531 50.84375 C 111.402344 50.355469 109.589844 50.054688 107.800781 49.730469 C 107.265625 49.636719 106.753906 49.519531 106.21875 49.636719 Z M 97.0625 49.753906 C 96.691406 49.613281 96.484375 49.566406 96.085938 49.636719 C 94.367188 49.960938 92.625 50.21875 90.929688 50.636719 C 87.582031 51.449219 84.46875 52.890625 81.585938 54.773438 C 79.539062 56.121094 77.660156 57.652344 75.824219 59.28125 C 75.195312 59.839844 74.589844 60.464844 73.988281 61.046875 C 74.707031 62.070312 75.636719 62.789062 76.566406 63.511719 C 76.636719 63.578125 76.753906 63.601562 76.84375 63.601562 C 77.378906 63.601562 77.914062 63.625 78.425781 63.554688 C 79.9375 63.324219 81.375 62.835938 82.839844 62.371094 C 83.722656 62.09375 84.492188 61.675781 85.1875 61.046875 C 86.210938 60.117188 87.1875 59.1875 87.882812 57.980469 C 89.117188 55.792969 90.578125 53.796875 92.371094 52.03125 C 93.507812 50.914062 94.832031 50.148438 96.4375 49.890625 C 96.644531 49.84375 96.832031 49.796875 97.0625 49.753906 Z M 127.648438 63.277344 C 129.066406 63.070312 130.320312 62.511719 131.480469 61.742188 C 132.132812 61.300781 132.597656 60.699219 132.921875 59.976562 C 133.109375 59.582031 133.316406 59.1875 133.574219 58.839844 C 134.0625 58.1875 134.339844 57.46875 134.550781 56.699219 C 134.875 55.351562 135.082031 53.980469 135.152344 52.609375 C 135.222656 50.960938 135.152344 49.308594 134.851562 47.683594 C 134.621094 46.453125 134.292969 45.21875 133.527344 44.175781 C 133.292969 43.847656 133.015625 43.570312 132.667969 43.335938 C 131.875 42.875 131.109375 42.386719 130.320312 41.921875 C 129.644531 41.5 128.949219 41.128906 128.183594 40.945312 C 127.671875 40.804688 127.160156 40.664062 126.554688 40.6875 C 127.089844 41.523438 127.601562 42.292969 128.113281 43.082031 C 130.226562 46.335938 131.761719 49.820312 132.296875 53.703125 C 132.457031 54.886719 132.574219 56.074219 132.039062 57.210938 C 131.96875 57.328125 131.945312 57.46875 131.898438 57.605469 C 131.761719 58.003906 131.644531 58.421875 131.457031 58.769531 C 130.644531 60.234375 129.507812 61.464844 128.390625 62.695312 C 128.136719 62.882812 127.878906 63.070312 127.648438 63.277344 Z M 76.660156 40.640625 C 75.519531 40.734375 74.519531 40.992188 73.613281 41.5 C 72.5 42.152344 71.382812 42.828125 70.269531 43.5 C 70.082031 43.617188 69.917969 43.800781 69.804688 43.988281 C 69.386719 44.546875 69.082031 45.152344 68.851562 45.800781 C 68.292969 47.40625 68.105469 49.078125 68.039062 50.75 C 67.96875 52.449219 68.128906 54.144531 68.457031 55.816406 C 68.6875 56.957031 68.988281 58.070312 69.734375 59 C 69.964844 59.304688 70.128906 59.652344 70.292969 60.023438 C 70.570312 60.652344 70.941406 61.1875 71.5 61.582031 C 72.5 62.324219 73.613281 62.8125 74.777344 63.183594 C 75.007812 63.253906 75.265625 63.300781 75.496094 63.347656 C 75.519531 63.324219 75.542969 63.277344 75.542969 63.253906 C 74.660156 62.625 74.03125 61.765625 73.335938 60.953125 C 72.3125 59.769531 71.476562 58.511719 71.082031 56.980469 C 70.894531 56.28125 70.710938 55.585938 70.78125 54.863281 C 70.800781 54.539062 70.847656 54.238281 70.871094 53.933594 C 71.128906 52.121094 71.523438 50.355469 72.171875 48.636719 C 72.941406 46.636719 73.964844 44.800781 75.101562 43.011719 C 75.613281 42.246094 76.125 41.480469 76.660156 40.640625 Z M 125.765625 64 C 124.765625 64.066406 123.835938 63.8125 122.882812 63.601562 C 122.09375 63.417969 121.304688 63.183594 120.488281 62.953125 C 119.117188 62.558594 118.074219 61.628906 116.957031 60.835938 C 116.003906 60.1875 115.398438 59.1875 114.796875 58.210938 C 113.449219 56.003906 111.960938 53.867188 110.101562 52.03125 C 109.242188 51.191406 108.265625 50.589844 107.125 50.195312 C 106.847656 50.101562 106.523438 50.03125 106.21875 49.960938 C 106.082031 50.308594 105.917969 50.589844 105.988281 50.9375 C 106.730469 51.167969 107.289062 51.632812 107.753906 52.238281 C 108.125 52.75 108.496094 53.261719 108.824219 53.796875 C 109.195312 54.398438 109.519531 55.003906 109.867188 55.609375 C 110.589844 56.792969 111.214844 58.027344 111.773438 59.304688 C 112.03125 59.90625 112.308594 60.488281 112.609375 61.046875 C 113.238281 62.207031 114.144531 63.160156 115.144531 64.019531 C 116.050781 64.8125 117.074219 65.183594 118.234375 65.277344 C 118.304688 65.277344 118.375 65.300781 118.445312 65.324219 C 119.488281 65.4375 120.535156 65.507812 121.582031 65.277344 C 122.488281 65.066406 123.417969 64.949219 124.324219 64.765625 C 124.882812 64.695312 125.347656 64.394531 125.765625 64 Z M 96.96875 50.03125 C 96.925781 50.007812 96.855469 49.984375 96.808594 50.007812 C 96.691406 50.03125 96.574219 50.03125 96.4375 50.078125 C 95.554688 50.332031 94.714844 50.703125 93.996094 51.261719 C 92.878906 52.097656 91.949219 53.144531 91.113281 54.238281 C 90.136719 55.515625 89.253906 56.863281 88.371094 58.234375 C 87.511719 59.582031 86.582031 60.835938 85.09375 61.558594 C 84.980469 61.605469 84.886719 61.699219 84.792969 61.765625 C 84.351562 62.207031 83.816406 62.511719 83.234375 62.71875 C 81.375 63.394531 79.472656 63.953125 77.472656 63.976562 C 77.449219 63.976562 77.425781 64.019531 77.355469 64.066406 C 77.84375 64.417969 78.332031 64.742188 78.9375 64.835938 C 79.519531 64.925781 80.074219 64.996094 80.65625 65.113281 C 81.75 65.371094 82.839844 65.554688 83.980469 65.4375 C 85.488281 65.277344 86.929688 65.089844 88.140625 63.976562 C 89.160156 63.023438 90.089844 62.023438 90.71875 60.769531 C 91.136719 59.929688 91.460938 59.023438 91.925781 58.1875 C 92.765625 56.609375 93.648438 55.050781 94.53125 53.492188 C 95.15625 52.425781 95.878906 51.425781 97.109375 50.960938 C 97.085938 50.613281 97.015625 50.332031 96.96875 50.03125 Z M 106.152344 49.378906 C 106.753906 49.378906 107.3125 49.308594 107.847656 49.402344 C 109.472656 49.660156 111.101562 49.9375 112.703125 50.308594 C 115.332031 50.914062 117.722656 52.054688 120.09375 53.308594 C 122.023438 54.355469 123.765625 55.632812 125.4375 57.027344 C 126.601562 58.003906 127.761719 58.953125 128.761719 60.070312 C 128.972656 60.304688 129.203125 60.488281 129.460938 60.746094 C 130.25 59.792969 131.085938 58.976562 131.367188 57.792969 C 131.320312 57.746094 131.320312 57.699219 131.273438 57.699219 C 130.132812 57.074219 129.15625 56.234375 128.25 55.328125 C 127.296875 54.375 126.230469 53.539062 125.019531 52.914062 C 123.671875 52.238281 122.300781 51.609375 120.953125 50.9375 C 119.398438 50.171875 117.769531 49.683594 116.074219 49.332031 C 114.332031 48.984375 112.585938 48.730469 110.796875 48.800781 C 109.566406 48.847656 108.335938 48.867188 107.125 48.914062 C 106.800781 48.914062 106.476562 48.914062 106.105469 48.914062 C 106.128906 49.03125 106.128906 49.171875 106.152344 49.378906 Z M 73.847656 60.835938 C 74.007812 60.605469 74.101562 60.417969 74.265625 60.257812 C 74.894531 59.628906 75.496094 59 76.148438 58.421875 C 78.84375 55.980469 81.75 53.890625 85.027344 52.308594 C 88.253906 50.75 91.671875 49.914062 95.179688 49.402344 C 95.761719 49.308594 96.367188 49.355469 96.992188 49.308594 C 96.992188 49.171875 96.992188 49.03125 96.992188 48.867188 C 96.832031 48.867188 96.667969 48.867188 96.507812 48.867188 C 95.832031 48.867188 95.179688 48.890625 94.507812 48.867188 C 93.089844 48.824219 91.671875 48.707031 90.253906 48.847656 C 88.140625 49.054688 86.023438 49.378906 84.050781 50.148438 C 81.515625 51.144531 78.984375 52.238281 76.707031 53.773438 C 76.378906 54.003906 76.054688 54.261719 75.753906 54.515625 C 74.984375 55.191406 74.265625 55.910156 73.5 56.5625 C 72.988281 57.003906 72.382812 57.351562 71.800781 57.769531 C 72.128906 58.953125 72.941406 59.792969 73.847656 60.835938 Z M 125.417969 40.222656 C 125.230469 39.851562 124.929688 39.6875 124.648438 39.480469 C 123.8125 38.898438 122.835938 38.644531 121.859375 38.433594 C 120.511719 38.15625 119.140625 38.0625 117.792969 38.410156 C 116.679688 38.714844 115.5625 39.039062 114.46875 39.410156 C 113.167969 39.875 112.054688 40.617188 111.125 41.640625 C 110.773438 42.035156 110.402344 42.410156 110.078125 42.828125 C 109.566406 43.476562 109.078125 44.128906 108.589844 44.800781 C 107.894531 45.753906 106.988281 46.453125 105.964844 47.125 C 105.988281 47.382812 106.035156 47.683594 106.082031 47.984375 C 106.21875 47.984375 106.3125 48.007812 106.429688 47.984375 C 108.125 47.636719 109.730469 47.078125 111.195312 46.125 C 112.726562 45.128906 114.238281 44.128906 115.796875 43.152344 C 117.957031 41.804688 120.28125 40.828125 122.835938 40.527344 C 123.671875 40.433594 124.511719 40.339844 125.417969 40.222656 Z M 97.0625 47.03125 C 96.96875 46.964844 96.878906 46.917969 96.808594 46.871094 C 96.019531 46.289062 95.25 45.683594 94.648438 44.894531 C 94.019531 44.082031 93.390625 43.246094 92.742188 42.453125 C 91.601562 41.015625 90.207031 39.945312 88.464844 39.339844 C 87.511719 39.015625 86.558594 38.738281 85.605469 38.480469 C 85.027344 38.339844 84.421875 38.273438 83.839844 38.25 C 82.632812 38.15625 81.46875 38.433594 80.308594 38.738281 C 79.449219 38.96875 78.679688 39.386719 78.007812 39.96875 C 77.9375 40.039062 77.867188 40.109375 77.75 40.269531 C 78.496094 40.339844 79.144531 40.433594 79.796875 40.480469 C 82.003906 40.6875 84.117188 41.316406 86.023438 42.410156 C 87.929688 43.5 89.765625 44.6875 91.601562 45.894531 C 93.183594 46.941406 94.878906 47.636719 96.714844 48.007812 C 96.832031 48.03125 96.949219 48.007812 97.0625 48.007812 C 97.0625 47.636719 97.0625 47.335938 97.0625 47.03125 Z M 142.3125 60.859375 C 142.660156 60.789062 142.890625 60.789062 143.101562 60.722656 C 143.890625 60.464844 144.683594 60.164062 145.496094 59.90625 C 147.472656 59.304688 148.910156 57.957031 150.328125 56.5625 C 150.375 56.515625 150.398438 56.46875 150.421875 56.445312 C 150.910156 55.933594 151.351562 55.375 151.910156 54.957031 C 153.210938 53.957031 154.628906 53.167969 156.117188 52.496094 C 156.652344 52.238281 157.183594 52.03125 157.8125 51.773438 C 156.1875 50.890625 154.535156 50.636719 152.816406 51.078125 C 151.675781 51.355469 150.65625 51.914062 149.75 52.65625 C 148.75 53.46875 147.890625 54.398438 147.007812 55.328125 C 145.65625 56.746094 144.355469 58.210938 143.148438 59.792969 C 142.890625 60.09375 142.636719 60.417969 142.3125 60.859375 Z M 60.785156 60.882812 C 60.761719 60.769531 60.761719 60.699219 60.714844 60.675781 C 59.925781 59.652344 59.136719 58.628906 58.300781 57.628906 C 57.671875 56.886719 57 56.210938 56.324219 55.515625 C 55.535156 54.703125 54.742188 53.867188 53.90625 53.097656 C 52.257812 51.589844 50.375 50.660156 48.050781 50.914062 C 47.121094 51.007812 46.238281 51.261719 45.378906 51.773438 C 45.984375 52.03125 46.515625 52.238281 47.050781 52.496094 C 48.585938 53.214844 50.074219 54.003906 51.375 55.074219 C 52.351562 55.863281 53.1875 56.816406 54.070312 57.699219 C 54.210938 57.839844 54.347656 58.027344 54.511719 58.140625 C 54.859375 58.421875 55.207031 58.746094 55.605469 58.953125 C 56.695312 59.464844 57.8125 59.953125 58.925781 60.417969 C 59.554688 60.628906 60.160156 60.722656 60.785156 60.882812 Z M 100.734375 43.035156 C 100.640625 43.359375 100.574219 43.59375 100.527344 43.847656 C 100.363281 44.6875 100.363281 45.523438 100.574219 46.359375 C 100.710938 47.007812 100.6875 47.660156 100.433594 48.265625 C 100.085938 49.078125 99.714844 49.867188 99.363281 50.660156 C 99.203125 51.03125 98.992188 51.378906 98.828125 51.75 C 98.714844 51.960938 98.738281 52.191406 98.851562 52.402344 C 99.0625 52.796875 99.804688 53.167969 100.246094 53.027344 C 100.78125 52.867188 101.269531 52.609375 101.570312 52.144531 C 102.363281 51.007812 103.058594 49.84375 103.429688 48.472656 C 103.640625 47.683594 103.6875 46.917969 103.664062 46.148438 C 103.664062 45.730469 103.570312 45.335938 103.339844 45.011719 C 103.058594 44.640625 102.804688 44.246094 102.480469 43.894531 C 102.015625 43.382812 101.457031 43.105469 100.734375 43.035156 Z M 44.125 52.167969 C 44.03125 52.121094 43.984375 52.097656 43.9375 52.097656 C 42.195312 51.984375 39.871094 52.960938 39.035156 54.839844 C 38.917969 55.121094 38.777344 55.375 38.640625 55.632812 C 38.152344 56.585938 38.011719 57.582031 38.3125 58.582031 C 38.570312 59.464844 38.917969 60.304688 39.195312 61.164062 C 39.359375 61.652344 39.707031 61.882812 40.171875 61.90625 C 40.753906 61.953125 41.335938 61.90625 41.867188 61.90625 C 41.636719 61.210938 41.402344 60.582031 41.21875 59.929688 C 41.054688 59.351562 41.078125 58.746094 41.171875 58.164062 C 41.242188 57.539062 41.289062 56.886719 41.496094 56.304688 C 42.007812 54.863281 42.753906 53.5625 43.84375 52.472656 C 43.9375 52.402344 44.03125 52.285156 44.125 52.167969 Z M 161.207031 61.929688 C 161.855469 61.929688 162.4375 61.953125 163.019531 61.929688 C 163.484375 61.90625 163.832031 61.675781 163.996094 61.1875 C 164.15625 60.699219 164.390625 60.210938 164.574219 59.722656 C 164.902344 58.839844 165.109375 57.957031 164.96875 57.003906 C 164.878906 56.28125 164.527344 55.679688 164.226562 55.050781 C 163.554688 53.585938 162.390625 52.75 160.878906 52.308594 C 160.300781 52.144531 159.695312 52.03125 159.089844 52.144531 C 159.066406 52.191406 159.066406 52.214844 159.066406 52.238281 C 159.113281 52.285156 159.136719 52.355469 159.207031 52.402344 C 160.183594 53.308594 160.808594 54.421875 161.390625 55.609375 C 161.972656 56.816406 162.089844 58.09375 162.019531 59.398438 C 161.996094 60.257812 161.695312 61.070312 161.207031 61.929688 Z M 62.15625 61.417969 C 62.132812 61.464844 62.132812 61.511719 62.109375 61.558594 C 62.320312 61.699219 62.527344 61.859375 62.738281 62 C 63.691406 62.582031 64.714844 63 65.78125 63.253906 C 66.710938 63.488281 67.664062 63.625 68.640625 63.371094 C 69.058594 63.277344 69.453125 63.183594 69.875 63.070312 C 70.40625 62.929688 71.3125 62.394531 71.617188 62.023438 C 70.523438 61.371094 70.128906 60.140625 69.292969 59.210938 C 69.058594 59.375 68.851562 59.511719 68.664062 59.675781 C 68.457031 59.839844 68.292969 60.046875 68.058594 60.164062 C 67.292969 60.582031 66.503906 60.90625 65.667969 61.09375 C 64.644531 61.324219 63.597656 61.441406 62.527344 61.417969 C 62.390625 61.417969 62.273438 61.417969 62.15625 61.417969 Z M 133.898438 59.234375 C 133.039062 60.1875 132.644531 61.417969 131.457031 62.140625 C 132.039062 62.464844 132.503906 62.8125 133.015625 62.976562 C 134.132812 63.324219 135.246094 63.625 136.476562 63.441406 C 138.058594 63.183594 139.476562 62.625 140.800781 61.765625 C 140.894531 61.699219 140.988281 61.605469 141.148438 61.417969 C 140.730469 61.417969 140.429688 61.417969 140.148438 61.417969 C 138.617188 61.394531 137.128906 61.117188 135.710938 60.464844 C 135.269531 60.257812 134.851562 60 134.503906 59.628906 C 134.339844 59.488281 134.132812 59.375 133.898438 59.234375 Z M 100.96875 53.355469 C 101.480469 53.445312 101.992188 53.726562 102.523438 53.515625 C 103.082031 53.308594 103.640625 53.074219 104.152344 52.796875 C 104.917969 52.378906 105.289062 51.609375 105.546875 50.820312 C 105.6875 50.402344 105.753906 49.9375 105.753906 49.496094 C 105.730469 48.636719 105.617188 47.800781 105.59375 46.941406 C 105.546875 45.964844 104.988281 45.335938 103.964844 45.21875 C 104.011719 45.570312 104.058594 45.917969 104.082031 46.265625 C 104.128906 47.125 103.941406 47.917969 103.6875 48.730469 C 103.152344 50.472656 102.433594 52.074219 100.992188 53.261719 C 100.96875 53.261719 100.96875 53.285156 100.96875 53.355469 Z M 98.457031 51.332031 C 99.132812 50.261719 99.644531 49.125 100.109375 47.984375 C 100.292969 47.496094 100.316406 47.007812 100.222656 46.476562 C 100.132812 45.917969 100.015625 45.335938 100.132812 44.753906 C 100.179688 44.476562 100.179688 44.175781 100.199219 43.847656 C 100.085938 43.871094 99.96875 43.847656 99.921875 43.894531 C 99.457031 44.175781 98.945312 44.40625 98.527344 44.730469 C 97.945312 45.195312 97.527344 45.777344 97.503906 46.546875 C 97.457031 47.636719 97.457031 48.753906 97.433594 49.84375 C 97.414062 50.613281 97.667969 51.144531 98.457031 51.332031 Z M 98.457031 51.332031 " fill-opacity="1" fill-rule="nonzero"/></g><g clip-path="url(#966b28f372)"><path fill="#c5d1c5" d="M 257.128906 293.039062 C 250.851562 293.371094 244.300781 295.960938 234.890625 301.828125 C 233.28125 302.832031 231.425781 304.035156 227.125 306.867188 C 214.429688 315.222656 209.710938 316.671875 196.925781 316.136719 C 193.734375 316 193.34375 316.015625 193.34375 316.257812 C 193.34375 316.4375 193.449219 316.46875 194.085938 316.488281 C 194.4375 316.496094 195.570312 316.546875 196.601562 316.59375 C 206.164062 317.046875 211.699219 316.140625 217.726562 313.128906 C 220.445312 311.769531 223.152344 310.136719 228.320312 306.738281 C 242.804688 297.203125 248.726562 294.398438 256.070312 293.601562 C 263.457031 292.804688 270.71875 295.964844 274.484375 301.621094 C 275.109375 302.554688 276.0625 304.621094 275.933594 304.75 C 275.921875 304.761719 275.65625 304.546875 275.347656 304.273438 C 272.78125 302.023438 270.464844 301.160156 267.625 301.394531 C 260.519531 301.976562 256.53125 308.007812 259.800781 313.230469 C 263.726562 319.503906 275.125 322.636719 290.382812 321.632812 C 298.09375 321.128906 303.636719 319.988281 313.855469 316.800781 C 320.066406 314.867188 322.015625 314.367188 324.910156 313.976562 C 328.925781 313.4375 331.695312 313.785156 334.6875 315.214844 C 336.167969 315.921875 336.820312 316.121094 337.011719 315.933594 C 337.214844 315.730469 337.105469 315.601562 336.609375 315.464844 C 336.390625 315.40625 335.734375 315.128906 335.148438 314.847656 C 329.980469 312.386719 325.324219 312.664062 314.425781 316.09375 C 305.910156 318.777344 301.765625 319.789062 296.234375 320.542969 C 278.519531 322.964844 264.027344 319.761719 260.03125 312.550781 C 257.925781 308.75 259.691406 304.683594 264.308594 302.699219 C 268.1875 301.035156 271.648438 301.707031 275.089844 304.789062 C 275.765625 305.390625 275.816406 305.421875 276.109375 305.421875 C 276.953125 305.421875 276.046875 302.765625 274.472656 300.632812 C 270.703125 295.523438 264.179688 292.667969 257.128906 293.039062 M 258.652344 298.128906 C 257.273438 298.6875 255.214844 301.441406 254.457031 303.738281 C 254.046875 304.976562 253.984375 305.386719 253.984375 306.808594 C 253.984375 309.96875 254.816406 311.390625 258.949219 315.253906 C 260.808594 316.996094 261.042969 317.1875 261.257812 317.132812 C 261.636719 317.035156 261.496094 316.839844 260.117188 315.582031 C 255.324219 311.207031 254.195312 309.339844 254.445312 306.214844 C 254.667969 303.421875 256.882812 299.570312 258.839844 298.574219 C 259.390625 298.296875 259.21875 297.898438 258.652344 298.128906 M 267.398438 298.316406 C 265.105469 298.609375 261.691406 300.035156 259.742188 301.511719 C 257.066406 303.539062 255.804688 306.230469 256.503906 308.429688 C 256.941406 309.808594 258.34375 312.167969 258.75 312.203125 C 259.109375 312.230469 259.042969 311.96875 258.453125 311.058594 C 256.273438 307.6875 256.269531 306 258.4375 303.484375 C 260.433594 301.175781 264.9375 298.929688 268.019531 298.714844 C 268.71875 298.664062 268.726562 298.664062 268.726562 298.441406 L 268.726562 298.253906 L 268.25 298.261719 C 267.988281 298.265625 267.605469 298.289062 267.398438 298.316406 M 272.070312 304.042969 C 271.917969 304.195312 271.972656 304.28125 272.675781 304.988281 C 273.503906 305.816406 273.777344 305.945312 273.777344 305.511719 C 273.777344 305.363281 273.683594 305.25 273.136719 304.707031 C 272.363281 303.941406 272.246094 303.867188 272.070312 304.042969 M 262.394531 305.714844 C 262.324219 306 262.988281 306.890625 263.273438 306.890625 C 263.601562 306.890625 263.570312 306.605469 263.203125 306.183594 C 263.085938 306.050781 262.933594 305.859375 262.867188 305.761719 C 262.710938 305.539062 262.445312 305.511719 262.394531 305.714844 M 241.679688 310.507812 C 235.660156 311.019531 231.738281 312.710938 224.898438 317.746094 C 220.371094 321.078125 218.511719 322.222656 216.34375 323.019531 C 213.464844 324.078125 210.539062 323.925781 209.1875 322.644531 C 208.746094 322.230469 208.605469 322.15625 208.472656 322.289062 C 207.984375 322.777344 209.542969 323.816406 211.164062 324.078125 C 215.027344 324.703125 218.054688 323.449219 225.003906 318.347656 C 229.417969 315.113281 231.617188 313.789062 234.464844 312.65625 C 241.398438 309.894531 249.753906 310.59375 253.15625 314.21875 C 253.609375 314.699219 253.613281 314.699219 252.894531 314.496094 C 249.351562 313.5 245.636719 314.511719 242.878906 317.222656 C 238.832031 321.203125 239.460938 326.851562 244.394531 330.78125 C 250.367188 335.535156 257.894531 335.6875 269.429688 331.289062 C 273.625 329.691406 274.703125 329.335938 276.355469 329 C 278.660156 328.53125 281 328.519531 282.242188 328.96875 C 282.695312 329.132812 282.933594 329.140625 282.980469 329 C 283.136719 328.5 281.433594 328.136719 279.207031 328.195312 C 276.667969 328.261719 274.8125 328.707031 270.871094 330.199219 C 267.054688 331.644531 265.984375 332.015625 264.03125 332.574219 C 256.871094 334.625 251.589844 334.453125 247.246094 332.023438 C 240.402344 328.199219 238.722656 322.152344 243.25 317.640625 C 245.972656 314.925781 249.464844 313.992188 252.996094 315.039062 C 254.355469 315.441406 254.558594 314.835938 253.445312 313.714844 C 251.867188 312.128906 249.085938 311.003906 245.699219 310.582031 C 245.242188 310.523438 242.152344 310.464844 241.679688 310.507812 M 229.644531 318.058594 C 228.105469 318.875 225.765625 320.066406 225.230469 320.300781 C 224.566406 320.59375 224.460938 320.691406 224.550781 320.925781 C 224.664062 321.222656 226.402344 320.421875 230.015625 318.410156 C 230.355469 318.222656 230.386719 317.859375 230.058594 317.859375 C 230.039062 317.859375 229.851562 317.949219 229.644531 318.058594 M 321.34375 318.082031 C 318.917969 318.277344 316.75 318.980469 313.449219 320.644531 C 310.394531 322.183594 309.949219 322.386719 308.777344 322.78125 C 307.472656 323.21875 306.023438 323.464844 305.523438 323.339844 C 305.148438 323.246094 304.933594 323.445312 305.113281 323.726562 C 305.179688 323.835938 306.210938 323.867188 306.816406 323.78125 C 308.5 323.539062 309.960938 322.988281 313.152344 321.386719 C 317.304688 319.300781 319.402344 318.613281 321.832031 318.527344 C 322.449219 318.503906 322.683594 318.476562 322.742188 318.417969 C 323.046875 318.113281 322.515625 317.984375 321.34375 318.082031 M 328.113281 318.261719 C 324.785156 319.355469 319.332031 322.601562 319.527344 323.371094 C 319.597656 323.644531 319.855469 323.5625 320.402344 323.089844 C 322.164062 321.578125 325.628906 319.644531 328.277344 318.699219 C 328.71875 318.539062 328.765625 318.507812 328.78125 318.375 C 328.816406 318.101562 328.667969 318.078125 328.113281 318.261719 M 212.433594 318.65625 C 210.085938 319.300781 206.894531 319.671875 203.609375 319.675781 C 201.367188 319.679688 200.835938 319.648438 199.234375 319.433594 C 198.566406 319.339844 197.421875 319.234375 195.941406 319.128906 C 195.4375 319.089844 195.292969 319.167969 195.378906 319.433594 C 195.421875 319.570312 195.488281 319.582031 197.046875 319.707031 C 197.785156 319.765625 198.761719 319.863281 199.21875 319.921875 C 200.902344 320.140625 201.382812 320.167969 203.5 320.167969 C 205.847656 320.167969 206.824219 320.101562 209.011719 319.808594 C 210.609375 319.59375 212.96875 319.054688 213.0625 318.886719 C 213.21875 318.589844 212.984375 318.503906 212.433594 318.65625 M 187.875 319.089844 C 187.800781 319.28125 187.992188 319.472656 189.375 320.597656 C 190.886719 321.835938 191.101562 321.960938 191.199219 321.664062 C 191.261719 321.457031 191.082031 321.28125 189.65625 320.144531 C 188.191406 318.972656 187.96875 318.84375 187.875 319.089844 M 246.863281 319.796875 C 246.65625 321.453125 248.335938 324.511719 250.445312 326.316406 C 253.523438 328.953125 258.0625 330.269531 266.207031 330.878906 C 266.535156 330.902344 266.597656 330.894531 266.625 330.816406 C 266.664062 330.714844 266.617188 330.460938 266.5625 330.460938 C 266.542969 330.460938 266.382812 330.433594 266.203125 330.40625 C 266.027344 330.378906 265.011719 330.265625 263.949219 330.160156 C 256.617188 329.425781 252.886719 328.089844 250.085938 325.199219 C 248.441406 323.507812 247.101562 320.945312 247.300781 319.882812 C 247.351562 319.597656 247.292969 319.488281 247.082031 319.488281 C 246.902344 319.488281 246.898438 319.492188 246.863281 319.796875 M 254.308594 320.878906 C 254 321.191406 254.800781 322.222656 255.9375 322.976562 C 258.378906 324.59375 260.953125 325.421875 266.199219 326.28125 C 268.339844 326.632812 268.644531 326.660156 268.695312 326.503906 C 268.796875 326.1875 268.835938 326.195312 266.308594 325.792969 C 262.6875 325.214844 260.738281 324.726562 258.867188 323.933594 C 256.792969 323.050781 255.191406 321.960938 254.785156 321.15625 C 254.59375 320.773438 254.480469 320.707031 254.308594 320.878906 M 222.34375 323.488281 C 217.769531 325.691406 210.636719 326.691406 208.332031 325.453125 C 208.109375 325.332031 207.835938 325.183594 207.722656 325.125 C 207.253906 324.878906 207.097656 325.320312 207.550781 325.628906 C 209.917969 327.257812 217.222656 326.441406 222.464844 323.957031 C 223.011719 323.699219 223.199219 323.433594 222.910156 323.324219 C 222.78125 323.273438 222.78125 323.277344 222.34375 323.488281 M 301.984375 324.929688 C 302.039062 326.050781 302.085938 326.191406 302.359375 326.085938 C 302.5 326.03125 302.515625 325.886719 302.453125 325.152344 C 302.367188 324.179688 302.378906 324.214844 302.144531 324.214844 L 301.945312 324.214844 L 301.984375 324.929688 M 242.832031 324.792969 C 242.625 324.878906 242.792969 325.351562 243.21875 325.871094 C 243.964844 326.792969 244.535156 327.199219 244.636719 326.882812 C 244.691406 326.710938 244.613281 326.597656 244.003906 325.964844 C 243.683594 325.625 243.351562 325.234375 243.269531 325.09375 C 243.078125 324.761719 243.015625 324.71875 242.832031 324.792969 M 302.230469 327.503906 C 301.601562 328.179688 298.421875 329.964844 296.234375 330.867188 C 293.71875 331.90625 291.941406 332.320312 288.15625 332.742188 C 285.363281 333.054688 284.132812 333.25 282.570312 333.636719 C 279.472656 334.402344 276.65625 336.085938 276.65625 337.164062 C 276.65625 337.488281 277.011719 337.453125 277.191406 337.109375 C 277.539062 336.460938 279.046875 335.4375 280.621094 334.789062 C 282.34375 334.078125 284.503906 333.628906 287.976562 333.257812 C 292.59375 332.765625 294.84375 332.167969 298.269531 330.527344 C 300.152344 329.628906 302.480469 328.140625 302.726562 327.683594 C 302.890625 327.375 302.484375 327.230469 302.230469 327.503906 M 288.617188 328.085938 C 287.53125 329.585938 285.632812 330.503906 283.34375 330.625 C 278.992188 330.863281 276.082031 332.03125 275.152344 333.917969 C 274.742188 334.742188 274.871094 335.980469 275.320312 335.535156 C 275.382812 335.472656 275.402344 335.34375 275.398438 335.039062 C 275.378906 333.117188 278.441406 331.476562 282.628906 331.167969 C 283.0625 331.132812 283.722656 331.085938 284.09375 331.058594 C 286.070312 330.910156 288.386719 329.601562 289.125 328.21875 C 289.34375 327.804688 288.902344 327.691406 288.617188 328.085938 M 237.835938 329.082031 C 237.074219 329.390625 240.710938 331.902344 243.933594 333.289062 C 245.15625 333.8125 247.761719 334.625 248.019531 334.5625 C 248.308594 334.488281 248.1875 334.167969 247.828125 334.070312 C 244.265625 333.074219 240.488281 331.210938 238.511719 329.472656 C 238.050781 329.0625 237.984375 329.023438 237.835938 329.082031 " fill-opacity="1" fill-rule="evenodd"/></g><g clip-path="url(#57ca2f0f7d)"><path fill="#f5f5dc" d="M 313.683594 37.609375 C 312.058594 37.765625 310.625 39.191406 309.851562 41.429688 C 309.8125 41.542969 309.742188 41.683594 309.675781 41.789062 C 309.167969 42.59375 308.78125 43.507812 308.640625 44.222656 C 308.617188 44.355469 308.585938 44.480469 308.578125 44.496094 C 308.546875 44.550781 308.488281 44.894531 308.503906 44.917969 C 308.535156 44.96875 308.65625 44.761719 308.726562 44.539062 C 308.738281 44.496094 308.777344 44.410156 308.808594 44.34375 C 308.84375 44.277344 308.945312 44.050781 309.035156 43.84375 C 309.195312 43.480469 309.441406 42.980469 309.421875 43.058594 C 309.367188 43.273438 309.210938 44.246094 309.171875 44.601562 C 309.160156 44.710938 309.140625 44.816406 309.132812 44.84375 C 309.113281 44.898438 309.019531 45.769531 309.03125 45.785156 C 309.074219 45.824219 309.171875 45.460938 309.304688 44.761719 C 309.554688 43.488281 309.917969 42.136719 310.082031 41.890625 C 311.800781 39.328125 314.566406 38.28125 316.390625 39.511719 C 316.707031 39.726562 316.832031 39.910156 317.09375 40.546875 C 318.140625 43.105469 317.855469 47.132812 316.285156 51.925781 C 316.058594 52.621094 315.527344 54.070312 315.40625 54.339844 C 315.375 54.40625 315.261719 54.683594 315.152344 54.960938 C 315.039062 55.234375 314.886719 55.609375 314.808594 55.792969 C 314.644531 56.183594 314.636719 56.234375 314.777344 56 C 314.984375 55.660156 315.363281 54.875 315.546875 54.394531 C 315.601562 54.257812 315.738281 53.917969 315.847656 53.636719 C 317.777344 48.828125 318.460938 44.160156 317.660156 41.253906 C 317.625 41.125 317.597656 41.019531 317.601562 41.015625 C 317.605469 41.011719 317.648438 41.117188 317.699219 41.246094 C 318.625 43.582031 318.269531 47.261719 316.648438 52.109375 C 316.25 53.300781 315.609375 54.992188 315.410156 55.375 C 315.335938 55.515625 315.222656 55.820312 315.234375 55.839844 C 315.34375 56.015625 316.164062 54.21875 316.8125 52.394531 C 319.027344 46.167969 319.105469 41.578125 317.039062 39.558594 C 316.945312 39.46875 316.824219 39.332031 316.777344 39.257812 C 316.011719 38.128906 314.832031 37.496094 313.683594 37.609375 M 314.183594 37.976562 C 314.8125 38.042969 315.386719 38.308594 315.902344 38.769531 L 316.011719 38.867188 L 315.855469 38.808594 C 314.28125 38.234375 312.378906 38.84375 310.773438 40.433594 L 310.480469 40.726562 L 310.574219 40.535156 C 311.425781 38.828125 312.828125 37.832031 314.183594 37.976562 M 303.832031 42.078125 C 302.996094 42.191406 302.25 42.519531 301.644531 43.035156 C 301.542969 43.125 301.417969 43.21875 301.367188 43.246094 C 299.792969 44.09375 299.292969 46.191406 300.148438 48.367188 C 300.851562 50.148438 302.324219 51.78125 304.617188 53.316406 C 304.859375 53.480469 305.058594 53.609375 305.820312 54.097656 C 306.808594 54.730469 308.363281 55.621094 310.003906 56.492188 C 310.265625 56.628906 310.648438 56.832031 310.855469 56.945312 C 311.394531 57.234375 311.992188 57.53125 312.234375 57.628906 C 312.347656 57.675781 312.449219 57.71875 312.457031 57.730469 C 312.46875 57.738281 312.53125 57.75 312.59375 57.757812 C 312.78125 57.777344 312.753906 57.710938 312.523438 57.59375 C 312.429688 57.546875 311.824219 57.203125 311.175781 56.832031 C 310.527344 56.460938 309.910156 56.113281 309.804688 56.054688 C 309.605469 55.941406 309.566406 55.910156 309.683594 55.960938 C 309.898438 56.050781 310.425781 56.257812 310.699219 56.363281 C 310.871094 56.429688 311.0625 56.503906 311.121094 56.53125 C 311.367188 56.644531 311.910156 56.773438 311.835938 56.703125 C 311.804688 56.675781 311.308594 56.441406 311.132812 56.371094 C 310.953125 56.300781 310.460938 56.074219 309.585938 55.664062 C 306.316406 54.128906 304.347656 52.855469 302.757812 51.257812 C 300.921875 49.417969 300.183594 47.398438 300.625 45.4375 C 300.832031 44.535156 301.441406 43.546875 301.890625 43.382812 C 302.972656 42.988281 304.347656 43.257812 305.976562 44.179688 C 306.058594 44.226562 306.230469 44.316406 306.355469 44.378906 C 306.484375 44.445312 306.621094 44.519531 306.664062 44.546875 C 306.800781 44.640625 307.136719 44.808594 307.164062 44.800781 C 307.210938 44.78125 307.191406 44.757812 306.980469 44.59375 C 305.371094 43.351562 304.128906 42.816406 302.898438 42.847656 L 302.554688 42.855469 L 302.71875 42.777344 C 303.523438 42.402344 304.558594 42.351562 305.621094 42.640625 C 306.117188 42.777344 306.460938 42.914062 307.285156 43.308594 C 307.542969 43.433594 307.839844 43.570312 307.9375 43.617188 C 308.039062 43.660156 308.136719 43.707031 308.152344 43.722656 C 308.191406 43.757812 308.464844 43.882812 308.507812 43.882812 C 308.597656 43.882812 308.441406 43.71875 308.214844 43.578125 C 308.167969 43.550781 308.066406 43.476562 307.980469 43.410156 C 306.683594 42.410156 305.109375 41.902344 303.832031 42.078125 M 327.109375 42.578125 C 327.074219 42.582031 326.960938 42.59375 326.859375 42.605469 C 324.886719 42.816406 322.753906 43.933594 321.125 45.617188 C 318.859375 47.960938 317.152344 51.1875 315.761719 55.765625 C 315.691406 56.003906 315.609375 56.253906 315.582031 56.320312 C 315.429688 56.71875 315.332031 57.382812 315.476562 57.046875 C 315.585938 56.792969 315.679688 56.542969 315.730469 56.367188 C 315.8125 56.101562 316.738281 53.589844 316.753906 53.605469 C 316.757812 53.609375 316.734375 53.6875 316.703125 53.785156 C 316.671875 53.882812 316.601562 54.121094 316.546875 54.320312 C 316.492188 54.519531 316.433594 54.722656 316.417969 54.773438 C 316.347656 54.996094 316.234375 55.535156 316.160156 56.007812 C 316.105469 56.351562 316.105469 56.320312 316.136719 56.320312 C 316.152344 56.320312 316.191406 56.214844 316.246094 56.011719 C 316.394531 55.480469 316.570312 54.816406 316.589844 54.71875 C 316.753906 53.941406 317.667969 51.742188 318.28125 50.640625 C 320.226562 47.152344 323.5 44.511719 326.46875 44.039062 C 328.75 43.671875 330.824219 44.535156 331.753906 46.234375 L 331.828125 46.375 L 331.839844 46.640625 C 331.890625 47.820312 331.433594 48.917969 330.121094 50.78125 L 329.847656 51.171875 L 329.628906 51.097656 C 329.511719 51.058594 329.402344 51.03125 329.390625 51.035156 C 329.335938 51.054688 329.378906 51.089844 329.570312 51.179688 L 329.773438 51.277344 L 329.722656 51.351562 C 329.699219 51.390625 329.640625 51.464844 329.597656 51.515625 C 329.355469 51.808594 329.183594 52.101562 329.253906 52.101562 C 329.265625 52.101562 329.554688 51.796875 329.828125 51.492188 L 329.945312 51.359375 L 330.011719 51.394531 C 330.050781 51.414062 330.101562 51.433594 330.125 51.441406 C 330.203125 51.464844 331.796875 52.257812 332.089844 52.417969 C 333.734375 53.328125 334.539062 54.132812 334.910156 55.25 C 335 55.515625 334.996094 55.515625 334.832031 55.339844 C 333.847656 54.273438 332.199219 53.449219 329.570312 52.710938 C 329.453125 52.679688 329.335938 52.640625 329.3125 52.628906 C 329.285156 52.613281 329.136719 52.570312 328.984375 52.527344 C 328.457031 52.378906 328.554688 52.5 329.144531 52.730469 C 329.230469 52.761719 329.488281 52.871094 329.71875 52.972656 C 329.949219 53.070312 330.398438 53.261719 330.71875 53.394531 C 333.324219 54.488281 334.066406 54.976562 334.960938 56.183594 L 335.085938 56.351562 L 335.070312 56.546875 C 334.898438 58.296875 333.332031 59.722656 330.867188 60.375 C 328.007812 61.128906 323.515625 60.761719 319 59.402344 C 318.75 59.328125 318.488281 59.246094 318.417969 59.21875 C 317.429688 58.84375 316.898438 58.675781 317.007812 58.761719 C 317.253906 58.960938 318.597656 59.472656 319.917969 59.875 C 323.824219 61.054688 327.648438 61.425781 330.402344 60.890625 C 333.050781 60.375 334.898438 59.011719 335.390625 57.203125 L 335.449219 56.980469 L 335.527344 57.15625 C 336.234375 58.777344 335.5625 60.34375 333.78125 61.207031 C 330.929688 62.597656 325.753906 62.191406 319.796875 60.117188 C 318.910156 59.808594 317.597656 59.308594 317.308594 59.171875 C 317.050781 59.046875 316.296875 58.730469 316.296875 58.746094 C 316.296875 58.773438 317.136719 59.28125 317.179688 59.28125 C 317.183594 59.28125 317.367188 59.371094 317.582031 59.476562 C 321.339844 61.324219 326.496094 62.539062 330.050781 62.410156 C 335.039062 62.230469 337.496094 59.546875 335.601562 56.359375 C 335.523438 56.230469 335.515625 56.203125 335.503906 56.0625 C 335.421875 54.96875 334.839844 53.933594 333.875 53.167969 C 333.160156 52.597656 331.902344 51.9375 330.679688 51.488281 C 330.460938 51.40625 330.230469 51.316406 330.167969 51.289062 L 330.054688 51.242188 L 330.171875 51.109375 C 331.121094 50.042969 331.867188 48.789062 332.117188 47.835938 C 332.144531 47.734375 332.152344 47.714844 332.167969 47.742188 C 332.214844 47.824219 332.199219 49.570312 332.144531 50.460938 C 332.128906 50.753906 332.136719 50.820312 332.183594 50.773438 C 332.207031 50.75 332.308594 50.285156 332.3125 50.203125 C 332.3125 50.171875 332.339844 50 332.375 49.816406 C 332.621094 48.554688 332.59375 47.421875 332.300781 46.511719 C 332.269531 46.402344 332.226562 46.222656 332.207031 46.113281 C 331.941406 44.371094 330.632812 43.0625 328.777344 42.683594 C 328.324219 42.59375 327.457031 42.539062 327.109375 42.578125 M 328.257812 43.019531 C 329.757812 43.222656 330.890625 43.953125 331.460938 45.089844 L 331.519531 45.203125 L 331.390625 45.074219 C 329.394531 43.039062 326.027344 43.023438 322.949219 45.039062 C 321.613281 45.914062 320.175781 47.292969 319.25 48.589844 C 319.144531 48.742188 319.121094 48.75 319.21875 48.605469 C 319.257812 48.546875 319.324219 48.449219 319.363281 48.386719 C 321.507812 45.09375 324.179688 43.234375 327.128906 42.984375 C 327.304688 42.96875 328.054688 42.992188 328.257812 43.019531 M 300.476562 44.710938 C 300.261719 45.257812 300.140625 45.878906 300.136719 46.5 L 300.132812 46.722656 L 300.117188 46.546875 C 300.058594 45.929688 300.191406 45.195312 300.457031 44.671875 C 300.574219 44.433594 300.582031 44.449219 300.476562 44.710938 M 300.925781 54.101562 C 295.722656 54.292969 292.734375 58.128906 294.945312 61.78125 C 296.136719 63.75 298.59375 64.777344 300.851562 64.25 C 300.960938 64.226562 301.105469 64.191406 301.171875 64.175781 C 301.34375 64.136719 301.417969 64.101562 301.402344 64.070312 C 301.394531 64.046875 301.3125 64.042969 300.761719 64.050781 C 298.417969 64.082031 297.105469 63.664062 295.96875 62.535156 C 294.417969 60.992188 294.132812 58.796875 295.261719 57.101562 C 296.941406 54.578125 300.679688 53.742188 305.257812 54.867188 C 306.160156 55.089844 307.445312 55.511719 307.792969 55.699219 C 307.945312 55.78125 308.109375 55.84375 308.132812 55.832031 C 308.242188 55.761719 307.8125 55.503906 307.160156 55.242188 C 305.582031 54.605469 303.582031 54.167969 301.988281 54.109375 C 301.386719 54.085938 301.300781 54.085938 300.925781 54.101562 M 300.980469 55.035156 C 298.304688 55.277344 295.839844 56.597656 295.027344 58.210938 C 294.457031 59.347656 294.6875 60.796875 295.621094 61.941406 C 296.59375 63.128906 298.433594 63.769531 300.210938 63.542969 C 300.308594 63.53125 300.441406 63.515625 300.507812 63.507812 C 300.714844 63.484375 300.65625 63.394531 300.414062 63.367188 C 300.367188 63.359375 300.246094 63.335938 300.136719 63.308594 C 300.03125 63.285156 299.707031 63.234375 299.414062 63.199219 C 298.265625 63.050781 297.800781 62.929688 297.128906 62.59375 C 295.707031 61.882812 294.863281 60.324219 295.148438 58.945312 C 295.503906 57.230469 297.800781 55.726562 300.691406 55.3125 C 301.375 55.214844 302.503906 55.152344 302.605469 55.207031 C 302.65625 55.234375 302.992188 55.226562 303 55.199219 C 303.003906 55.1875 302.957031 55.15625 302.894531 55.128906 C 302.785156 55.082031 302.730469 55.070312 302.257812 55.023438 C 302.023438 55 301.289062 55.007812 300.980469 55.035156 M 314.066406 58.851562 C 314.050781 58.886719 314.027344 58.996094 314.019531 59.085938 C 313.929688 60.03125 313.089844 62.261719 312.273438 63.714844 C 311.96875 64.265625 311.636719 64.796875 311.589844 64.808594 C 311.550781 64.824219 311.453125 64.964844 311.261719 65.296875 C 310.953125 65.835938 309.605469 67.621094 309.121094 68.132812 C 309.105469 68.144531 309.191406 68 309.304688 67.808594 C 309.78125 67.015625 310.6875 65.40625 310.96875 64.84375 C 311.0625 64.660156 311.160156 64.480469 311.183594 64.441406 C 311.320312 64.226562 311.566406 63.5625 311.476562 63.652344 C 311.441406 63.6875 311.15625 64.164062 311.054688 64.351562 C 311.015625 64.429688 310.730469 64.914062 310.421875 65.429688 C 310.113281 65.941406 309.722656 66.601562 309.550781 66.890625 C 308.585938 68.527344 308.015625 69.351562 307.546875 69.78125 C 305.722656 71.445312 304.101562 72.320312 302.554688 72.460938 C 300.726562 72.632812 299.242188 71.640625 298.789062 69.945312 L 298.734375 69.746094 L 298.820312 69.535156 C 299.042969 69.003906 299.246094 68.675781 300.378906 67.011719 C 300.550781 66.761719 300.613281 66.65625 300.597656 66.640625 C 300.578125 66.621094 300.589844 66.609375 300.25 66.996094 C 299.613281 67.726562 299.035156 68.515625 298.738281 69.066406 L 298.65625 69.214844 L 298.65625 68.890625 C 298.65625 68.09375 298.808594 67.453125 299.171875 66.695312 C 299.398438 66.230469 299.589844 65.933594 300.363281 64.839844 C 300.476562 64.683594 300.503906 64.613281 300.453125 64.613281 C 300.378906 64.613281 299.632812 65.4375 299.328125 65.855469 C 298.523438 66.957031 298.175781 68.339844 298.394531 69.558594 C 298.421875 69.714844 298.429688 69.789062 298.417969 69.820312 C 298.296875 70.132812 298.285156 70.84375 298.390625 71.316406 C 298.847656 73.378906 301.164062 74.140625 303.875 73.125 C 305.289062 72.597656 306.390625 71.738281 307.664062 70.167969 C 307.769531 70.039062 307.988281 69.800781 308.15625 69.640625 C 308.621094 69.183594 309.144531 68.609375 309.605469 68.058594 C 309.785156 67.839844 309.792969 67.832031 309.761719 67.890625 C 309.6875 68.035156 308.226562 70.453125 307.792969 71.148438 C 304.3125 76.714844 301.351562 80.59375 299.425781 82.117188 C 298.824219 82.59375 298.339844 82.875 297.390625 83.300781 C 296.671875 83.621094 296.453125 83.757812 296.292969 83.988281 C 295.675781 84.894531 296.769531 86.679688 298.042969 86.847656 C 299.3125 87.011719 301.242188 85.480469 303.480469 82.53125 C 306.085938 79.105469 308.253906 74.886719 310.179688 69.519531 C 310.296875 69.1875 310.441406 68.796875 310.496094 68.648438 C 310.554688 68.5 310.667969 68.199219 310.746094 67.972656 C 310.960938 67.378906 311.039062 67.175781 311.039062 67.191406 C 311.039062 67.199219 311.015625 67.308594 310.984375 67.429688 C 310.507812 69.316406 310.363281 71.433594 310.597656 73.054688 C 311.035156 76.074219 312.679688 78.308594 314.789062 78.75 C 316.539062 79.113281 318.410156 77.890625 319.03125 75.980469 C 319.078125 75.832031 319.171875 75.59375 319.242188 75.453125 C 319.546875 74.832031 319.734375 74.242188 319.90625 73.378906 C 319.964844 73.085938 320.09375 72.28125 320.09375 72.203125 C 320.09375 72.066406 320.09375 72.066406 320.550781 72.628906 C 320.671875 72.777344 320.816406 72.945312 320.871094 73.007812 C 320.949219 73.09375 320.988281 73.160156 321.039062 73.277344 C 321.242188 73.789062 321.597656 74.378906 321.878906 74.660156 C 323.003906 75.792969 325.070312 76.097656 326.980469 75.414062 C 329.058594 74.664062 330.039062 72.792969 329.507812 70.582031 C 329.484375 70.480469 329.460938 70.3125 329.453125 70.203125 C 329.351562 68.410156 328.089844 66.257812 326.058594 64.394531 C 323.8125 62.347656 320.152344 60.335938 317.085938 59.476562 C 316.953125 59.4375 316.828125 59.402344 316.8125 59.390625 C 316.757812 59.363281 316.304688 59.269531 316.113281 59.246094 C 316.015625 59.234375 315.914062 59.222656 315.886719 59.21875 C 315.628906 59.175781 316.316406 59.425781 316.800781 59.550781 C 317.476562 59.726562 319.6875 60.660156 320.804688 61.246094 C 324.367188 63.109375 326.804688 65.179688 328.164062 67.492188 C 328.367188 67.839844 328.738281 68.609375 328.738281 68.683594 C 328.738281 68.691406 328.6875 68.613281 328.628906 68.511719 C 326.921875 65.5625 323.140625 62.550781 318.242188 60.230469 C 317.382812 59.824219 316.113281 59.332031 316.0625 59.382812 C 316.023438 59.421875 316.257812 59.539062 316.890625 59.800781 C 320.855469 61.449219 324.875 64.164062 327.070312 66.679688 C 328.058594 67.808594 328.945312 69.234375 329.042969 69.839844 C 329.46875 72.507812 327.679688 74.699219 325.007812 74.789062 C 323.667969 74.832031 322.78125 74.421875 321.339844 73.09375 L 321.207031 72.96875 L 321.085938 72.664062 C 321.019531 72.5 320.902344 72.1875 320.828125 71.972656 C 320.75 71.757812 320.652344 71.492188 320.609375 71.378906 C 320.566406 71.269531 320.523438 71.144531 320.515625 71.105469 C 320.507812 71.066406 320.445312 70.886719 320.375 70.703125 C 320.257812 70.378906 320.21875 70.316406 320.195312 70.414062 C 320.148438 70.617188 320.054688 71.101562 320.046875 71.179688 C 320.042969 71.234375 320.003906 71.433594 319.964844 71.625 C 319.921875 71.816406 319.855469 72.152344 319.816406 72.367188 C 319.6875 73.03125 319.453125 74.035156 319.429688 74.011719 C 319.425781 74.003906 319.4375 73.84375 319.453125 73.652344 C 319.558594 72.363281 319.597656 70.292969 319.511719 70.539062 C 319.496094 70.578125 319.40625 71.496094 319.40625 71.613281 C 319.40625 71.707031 319.382812 71.976562 319.296875 72.902344 C 319.128906 74.683594 318.996094 75.28125 318.652344 75.773438 C 317.554688 77.355469 315.730469 78.039062 314.070312 77.488281 C 311.144531 76.519531 310.085938 72.550781 311.382812 67.4375 C 311.574219 66.6875 311.949219 65.476562 312.058594 65.261719 C 312.09375 65.195312 312.292969 64.695312 312.394531 64.425781 C 312.445312 64.285156 312.441406 64.230469 312.386719 64.296875 C 312.296875 64.398438 311.992188 64.988281 311.925781 65.1875 C 311.910156 65.234375 311.84375 65.390625 311.785156 65.539062 C 311.675781 65.804688 311.464844 66.375 311.398438 66.582031 C 311.382812 66.640625 311.363281 66.683594 311.359375 66.679688 C 311.351562 66.667969 311.441406 66.351562 311.503906 66.171875 C 311.574219 65.972656 311.75 65.367188 311.789062 65.183594 C 311.8125 65.074219 311.84375 65.003906 311.921875 64.878906 C 313.121094 62.972656 314.078125 60.496094 314.160156 59.089844 C 314.175781 58.808594 314.128906 58.695312 314.066406 58.851562 M 310.890625 66.800781 C 310.777344 67.121094 310.605469 67.644531 310.503906 67.964844 C 310.1875 68.953125 309.53125 70.691406 308.855469 72.316406 C 305.550781 80.253906 300.566406 86.867188 298.101562 86.585938 C 297.039062 86.464844 296.003906 84.886719 296.503906 84.148438 C 296.632812 83.957031 296.867188 83.8125 297.535156 83.523438 C 299.582031 82.632812 300.90625 81.398438 303.4375 78.023438 C 305.285156 75.558594 307.117188 72.804688 309.207031 69.34375 C 310.265625 67.597656 310.992188 66.386719 311.039062 66.292969 C 311.117188 66.148438 311.101562 66.195312 310.890625 66.800781 M 298.636719 70.433594 C 298.636719 70.550781 299.046875 71.238281 299.269531 71.5 C 300.835938 73.324219 303.570312 73.191406 306.394531 71.152344 L 306.53125 71.054688 L 306.417969 71.160156 C 305.367188 72.152344 304.5 72.671875 303.332031 73.007812 C 300.90625 73.707031 299 72.949219 298.648438 71.148438 C 298.609375 70.949219 298.585938 70.378906 298.617188 70.398438 C 298.628906 70.402344 298.636719 70.421875 298.636719 70.433594 M 320.371094 71.15625 C 320.378906 71.179688 320.425781 71.347656 320.472656 71.535156 C 320.539062 71.820312 320.699219 72.371094 320.753906 72.511719 C 320.773438 72.566406 320.703125 72.507812 320.402344 72.210938 L 320.125 71.941406 L 320.15625 71.582031 C 320.171875 71.382812 320.195312 71.203125 320.203125 71.179688 C 320.210938 71.15625 320.226562 71.023438 320.234375 70.886719 L 320.246094 70.640625 L 320.300781 70.878906 C 320.328125 71.011719 320.359375 71.136719 320.371094 71.15625 M 329.464844 71.664062 C 329.464844 73.617188 328.167969 75.015625 326.015625 75.386719 C 324.0625 75.71875 322.394531 75.117188 321.621094 73.796875 C 321.597656 73.757812 321.664062 73.808594 321.863281 73.988281 C 322.992188 74.988281 324.203125 75.351562 325.632812 75.109375 C 327.652344 74.765625 329.195312 73.230469 329.414062 71.34375 C 329.441406 71.128906 329.464844 71.292969 329.464844 71.664062 M 318.367188 76.714844 C 317 78.964844 314.394531 79.121094 312.570312 77.0625 L 312.457031 76.9375 L 312.613281 77.0625 C 314.320312 78.441406 316.636719 78.300781 318.296875 76.722656 C 318.375 76.652344 318.4375 76.59375 318.441406 76.589844 C 318.441406 76.589844 318.410156 76.648438 318.367188 76.714844 " fill-opacity="1" fill-rule="evenodd"/></g></svg>